#N canvas 827 239 630 550 12;
#N canvas 0 50 450 250 (subpatch) 0;
#X obj 139 199 pad 31 31 255 255 255;
#X obj 32 429 pad 31 21 255 255 255;
#X obj 456 358 pad 37 16 255 255 255;
#X obj 464 16 pad 31 21 255 255 255;
#X obj 34 268 pad 37 23 255 255 255;
#X obj 396 472 pad 38 42 255 255 255;
#X obj 516 476 pad 38 37 255 255 255;
#X obj 512 358 pad 38 37 255 255 255;
#X obj 397 357 pad 38 37 255 255 255;
#X obj 236 471 pad 38 42 255 255 255;
#X obj 356 475 pad 38 37 255 255 255;
#X obj 352 357 pad 38 37 255 255 255;
#X obj 237 356 pad 38 37 255 255 255;
#X obj 75 471 pad 38 42 255 255 255;
#X obj 195 475 pad 38 37 255 255 255;
#X obj 191 357 pad 38 37 255 255 255;
#X obj 76 356 pad 38 37 255 255 255;
#X obj 397 311 pad 38 42 255 255 255;
#X obj 512 315 pad 38 37 255 255 255;
#X obj 514 197 pad 38 37 255 255 255;
#X obj 397 196 pad 38 37 255 255 255;
#X obj 236 305 pad 38 47 255 255 255;
#X obj 349 306 pad 43 42 255 255 255;
#X obj 352 196 pad 38 41 255 255 255;
#X obj 238 198 pad 39 41 255 255 255;
#X obj 75 310 pad 38 42 255 255 255;
#X obj 189 312 pad 41 39 255 255 255;
#X obj 191 196 pad 38 37 255 255 255;
#X obj 76 195 pad 37 43 255 255 255;
#X obj 398 152 pad 38 42 255 255 255;
#X obj 513 156 pad 38 37 255 255 255;
#X obj 515 38 pad 38 37 255 255 255;
#X obj 398 37 pad 38 37 255 255 255;
#X obj 237 146 pad 38 47 255 255 255;
#X obj 350 147 pad 43 42 255 255 255;
#X obj 353 37 pad 38 41 255 255 255;
#X obj 239 39 pad 39 41 255 255 255;
#X obj 76 151 pad 38 42 255 255 255;
#X obj 190 153 pad 41 39 255 255 255;
#X obj 192 37 pad 38 37 255 255 255;
#X obj 77 36 pad 37 43 255 255 255;
#N canvas 0 50 450 250 (subpatch) 0;
#X obj -21 -11 cnv 15 669 589 empty empty empty 20 12 0 14 #383838 #ffffff 0;
#X obj 338 -173 note 0 840 Inter empty 0 255 172 171 0 25 25 25 0 0 /;
#X obj 390 -173 note 0 840 Inter empty 0 91 206 250 0 25 25 25 0 0 /;
#X obj 179 -173 note 0 840 Inter empty 0 91 206 250 0 25 25 25 0 0 /;
#X obj 284 -173 note 0 840 Inter empty 0 0 0 0 0 25 25 25 0 0 /;
#X obj 231 -173 note 0 840 Inter empty 0 255 172 171 0 25 25 25 0 0 /;
#X coords 0 1 100 -1 631 551 1 0 0;
#X restore -1 -1 graph;
#X obj 399 359 knob 151 0 1 0 0 empty empty #191919 #00271d #01687a 1 0 105 0 350 350 0 0 0;
#X obj 79 39 knob 151 0 2000 0 0 empty empty #191919 #420011 #ff003f 1 0 9 0 310 310 0 0 0;
#X obj 239 39 knob 151 -1 1 0 0 empty empty #191919 #00334c #00abff 1 0 12 0 310 310 0 0 0;
#X obj 399 39 knob 151 0 1 0 0 empty empty #191919 #453200 #ffb900 1 0 15 0 310 310 0 0 0;
#X obj 79 199 knob 151 0 1 0 0 empty empty #191919 #283f00 #a1ff00 1 0 22 0 310 310 0 0 0;
#X obj 239 199 knob 151 -512 512 0 0 empty empty #191919 #4c0028 #ff0088 1 0 5 0 310 310 0 0 0;
#X obj 399 199 knob 151 0 1 0 0 empty empty #191919 #1c003d #7600ff 1 0 25 0 310 310 0 0 0;
#X obj 79 359 knob 151 0 1 0 0 empty empty #191919 #004417 #00ff56 1 0 15 0 310 310 0 0 0;
#X obj 239 359 knob 151 0 1 0 0 empty empty #191919 #471400 #ff4900 1 0 21 0 310 310 0 0 0;
#X obj 659 39 cnv 15 21 21 empty k1 💧 -549 75 0 82 #575757 #191919 0;
#X obj 659 289 cnv 15 21 21 empty k7 🦋 -223 -179 0 61 #575757 #191919 0;
#X obj 659 349 cnv 15 21 21 empty k9 🧿 -239 83 0 97 #575757 #191919 0;
#X obj 659 319 cnv 15 21 21 empty k8 💖 -228 -41 0 77 #575757 #191919 0;
#X obj 659 69 cnv 15 21 21 empty k2 💧 -549 208 0 82 #575757 #191919 0;
#X obj 659 99 cnv 15 21 21 empty k3 💧 -549 335 0 82 #575757 #191919 0;
#X obj 659 129 cnv 15 21 21 empty k4 💧 -390 -14 0 82 #575757 #191919 0;
#X obj 659 159 cnv 15 21 21 empty k5 💧 -390 115 0 82 #575757 #191919 0;
#X obj 659 189 cnv 15 21 21 empty k6 💧 -390 247 0 82 #575757 #191919 0;
#X obj 115 332 nbx 7 18 0 1 0 0 genderfuck empty empty 0 -8 0 10 #191919 #ffffff #ffffff 0 256;
#X obj 271 332 nbx 7 18 -512 512 0 0 gaysex empty empty 0 -8 0 10 #191919 #ffffff #ffffff 0 256;
#X obj 437 332 nbx 7 18 0 1 0 0 plsplsplsuwu empty empty 0 -8 0 10 #191919 #ffffff #ffffff 0 256;
#X obj 119 492 nbx 7 18 0 1 0 0 insight empty empty 0 -8 0 10 #191919 #ffffff #ffffff 0 256;
#X obj 279 492 nbx 7 18 0 1 0 0 enchantment empty empty 0 -8 0 10 #191919 #ffffff #ffffff 0 256;
#X obj 439 492 nbx 7 18 0 1 0 0 witch empty empty 0 -8 0 10 #191919 #ffffff #ffffff 0 256;
#X obj 119 172 nbx 7 18 0 2000 0 0 gender empty empty 0 -8 0 10 #191919 #ffffff #ffffff 0 256;
#X obj 275 172 nbx 7 18 -1 1 0 0 gay empty empty 0 -8 0 10 #191919 #ffffff #ffffff 0 256;
#X obj 434 172 nbx 7 18 0 1 0 0 doll empty empty 0 -8 0 10 #191919 #ffffff #ffffff 0 256;
#X msg 449 109 set \$1;
#X msg 289 109 set \$1;
#X msg 129 99 set \$1;
#X msg 129 269 set \$1;
#X msg 289 269 set \$1;
#X msg 449 259 set \$1;
#X msg 289 429 set \$1;
#X msg 139 419 set \$1;
#X obj 659 389 cnv 15 21 21 empty skull 💀 -268 -11 0 39 #575757 #ffca00 0;
#X obj 659 419 cnv 15 21 21 empty knife 🔪 -155 -40 0 39 #575757 #ffffff 0;
#X obj 659 449 cnv 15 21 21 empty nuclear ☢ -145 43 0 43 #575757 #ffffff 0;
#X obj 659 479 cnv 15 21 21 empty biohaz ☣️ -264 9 0 46 #575757 #ffffff 0;
#X obj 719 359 cnv 15 21 21 empty cat 🐱 -482 16 0 33 #575757 #ffacab 0;
#X obj 689 419 cnv 15 21 21 empty trans ⚧ -609 -36 0 48 #575757 #0095ff 0;
#X obj 689 449 cnv 15 21 21 empty dna 🧬 -500 -67 0 42 #575757 #ffffff 0;
#X obj 689 479 cnv 15 21 21 empty orb 🔮 -619 10 0 42 #575757 #ffffff 0;
#X obj 719 389 cnv 15 21 21 empty shrimp 🍤 -373 -11 0 39 #575757 #ffffff 0;
#X obj 719 419 cnv 15 21 21 empty fire 🔥 -485 -100 0 39 #575757 #ffffff 0;
#X obj 719 449 cnv 15 21 21 empty mushroom 🍄 -487 40 0 41 #575757 #ffffff 0;
#X obj 719 479 cnv 15 21 21 empty wettt 💦 -486 -258 0 41 #575757 #00abff 0;
#X obj 747 389 cnv 15 21 21 empty kiss 💋 -403 -169 0 39 #575757 #ffffff 0;
#X obj 749 419 cnv 15 21 21 empty 8ball 🎱 -401 72 0 39 #575757 #ffffff 0;
#X obj 749 449 cnv 15 21 21 empty rainbow 🌈 -412 -126 0 46 #575757 #ffffff 0;
#X obj 749 479 cnv 15 21 21 empty candy 🍬 -358 -151 0 44 #575757 #ffffff 0;
#X obj 779 389 cnv 15 21 21 empty tooth 🦷 -272 -330 0 42 #575757 #ffffff 0;
#X obj 779 419 cnv 15 21 21 empty needle 🪡 -277 -198 0 53 #575757 #ffffff 0;
#X obj 779 449 cnv 15 21 21 empty bandage 🩹 -276 -117 0 49 #575757 #ffffff 0;
#X obj 779 479 cnv 15 21 21 empty sun ☀️ -702 -423 0 40 #575757 #ffca00 0;
#X obj 809 389 cnv 15 21 21 empty moon 🌕 -615 -331 0 40 #575757 #ffffff 0;
#X obj 809 419 cnv 15 21 21 empty planet 🪐 -622 -251 0 49 #575757 #ffffff 0;
#X obj 837 419 cnv 15 21 21 empty testtube 🧪 -654 -89 0 40 #575757 #ffffff 0;
#X obj 809 449 cnv 15 21 21 empty dino 🦕 -469 -279 0 46 #575757 #ffffff 0;
#X obj 809 479 cnv 15 21 21 empty scissors ✂️ -411 -266 0 42 #575757 #ff4900 0;
#X obj 839 449 cnv 15 21 21 empty 2lungs 🫁 -445 -394 0 46 #575757 #ff003f 0;
#X obj 839 479 cnv 15 21 21 empty heart 🫀 -445 -310 0 46 #575757 #ffffff 0;
#X obj 867 449 cnv 15 21 21 empty brain 🧠 -363 -278 0 41 #575757 #ffffff 0;
#X obj 869 479 cnv 15 21 21 empty dharma ☸️ -519 -420 0 41 #575757 #ffffff 0;
#X obj 869 419 cnv 15 21 21 empty atom ⚛️ -631 -251 0 41 #575757 #ffffff 0;
#X obj 839 389 cnv 15 21 21 empty star 🌟 -762 -220 0 32 #575757 #ffffff 0;
#X obj 689 389 cnv 15 21 21 empty feather 🪶 -501 99 0 49 #575757 #ffffff 0;
#X obj 899 449 cnv 15 21 21 empty supersoaker 🔫 -715 -230 0 40 #575757 #ffffff 0;
#X obj 899 419 cnv 15 21 21 empty axe 🪓 -823 -91 0 44 #575757 #ffffff 0;
#X obj 869 389 cnv 15 21 21 empty clover 🍀 -639 -328 0 44 #575757 #a1ff00 0;
#X obj 899 389 cnv 15 21 21 empty lipstick 💄 -831 -167 0 44 #575757 #7600ff 0;
#N canvas 0 50 596 495 witch-mode 0;
#X obj 9 9 inlet;
#X obj 89 9 inlet;
#X obj 169 9 inlet;
#X obj 259 9 inlet;
#X obj 9 39 route click;
#X obj 89 39 route click;
#X obj 169 39 route click;
#X obj 259 39 route click;
#X msg 9 69 0;
#X msg 89 69 1;
#X msg 169 69 2;
#X msg 259 69 3;
#X msg 19 309 color #575757 #000000 #ffffff;
#X msg 9 219 color #575757 #000000 #ffca00;
#X msg 109 339 color #575757 #000000 #ffffff;
#X msg 89 249 color #575757 #000000 #ffca00;
#X msg 169 279 color #575757 #000000 #ffca00;
#X msg 259 309 color #575757 #000000 #ffca00;
#X msg 189 369 color #575757 #000000 #ffffff;
#X msg 279 399 color #575757 #000000 #ffffff;
#X obj 9 189 select 0 1 2 3;
#X obj 9 146 int;
#X obj 9 459 s skull;
#X obj 89 459 s knife;
#X obj 169 459 s biohaz;
#X obj 259 459 s nuclear;
#X obj 9 109 nbx 4 18 -1e+37 1e+37 0 0 empty empty empty 0 -8 0 10 #191919 #ffffff #ffffff 0 256;
#X obj 119 189 s witch-mode;
#X obj 339 39 r witch-mode;
#X obj 339 69 param WITCH-mode;
#X obj 479 69 loadbang;
#X connect 0 0 4 0;
#X connect 1 0 5 0;
#X connect 2 0 6 0;
#X connect 3 0 7 0;
#X connect 4 0 8 0;
#X connect 5 0 9 0;
#X connect 6 0 10 0;
#X connect 7 0 11 0;
#X connect 8 0 26 0;
#X connect 9 0 26 0;
#X connect 10 0 26 0;
#X connect 11 0 26 0;
#X connect 12 0 23 0;
#X connect 12 0 24 0;
#X connect 12 0 25 0;
#X connect 13 0 12 0;
#X connect 13 0 22 0;
#X connect 14 0 22 0;
#X connect 14 0 24 0;
#X connect 14 0 25 0;
#X connect 15 0 14 0;
#X connect 15 0 23 0;
#X connect 16 0 18 0;
#X connect 16 0 24 0;
#X connect 17 0 19 0;
#X connect 17 0 25 0;
#X connect 18 0 22 0;
#X connect 18 0 23 0;
#X connect 18 0 25 0;
#X connect 19 0 22 0;
#X connect 19 0 23 0;
#X connect 19 0 24 0;
#X connect 20 0 13 0;
#X connect 20 1 15 0;
#X connect 20 2 16 0;
#X connect 20 3 17 0;
#X connect 21 0 20 0;
#X connect 21 0 27 0;
#X connect 26 0 21 0;
#X connect 28 0 29 0;
#X connect 29 0 26 0;
#X connect 30 0 26 0;
#X restore 469 629 pd witch-mode;
#X msg 459 429 set \$1;
#N canvas 0 50 596 495 gender-mode 0;
#X obj 9 9 inlet;
#X obj 89 9 inlet;
#X obj 169 9 inlet;
#X obj 249 9 inlet;
#X obj 9 39 route click;
#X obj 89 39 route click;
#X obj 169 39 route click;
#X obj 249 39 route click;
#X msg 9 69 0;
#X msg 89 69 1;
#X msg 169 69 2;
#X msg 249 69 3;
#X msg 19 309 color #575757 #000000 #ffffff;
#X msg 9 219 color #575757 #000000 #ffca00;
#X msg 109 339 color #575757 #000000 #ffffff;
#X msg 89 249 color #575757 #000000 #ffca00;
#X msg 169 279 color #575757 #000000 #ffca00;
#X msg 259 309 color #575757 #000000 #ffca00;
#X msg 189 369 color #575757 #000000 #ffffff;
#X msg 279 399 color #575757 #000000 #ffffff;
#X obj 9 189 select 0 1 2 3;
#X obj 9 155 int;
#X obj 9 459 s sun;
#X obj 89 459 s moon;
#X obj 169 459 s star;
#X obj 259 459 s planet;
#X obj 9 109 nbx 4 18 -1e+37 1e+37 0 0 empty empty empty 0 -8 0 10 #191919 #ffffff #ffffff 0 256;
#X obj 119 189 s gender-mode;
#X obj 359 69 param GENDER-mode;
#X obj 359 39 r gender-mode;
#X obj 509 69 loadbang;
#X connect 0 0 4 0;
#X connect 1 0 5 0;
#X connect 2 0 6 0;
#X connect 3 0 7 0;
#X connect 4 0 8 0;
#X connect 5 0 9 0;
#X connect 6 0 10 0;
#X connect 7 0 11 0;
#X connect 8 0 26 0;
#X connect 9 0 26 0;
#X connect 10 0 26 0;
#X connect 11 0 26 0;
#X connect 12 0 23 0;
#X connect 12 0 24 0;
#X connect 12 0 25 0;
#X connect 13 0 12 0;
#X connect 13 0 22 0;
#X connect 14 0 22 0;
#X connect 14 0 24 0;
#X connect 14 0 25 0;
#X connect 15 0 14 0;
#X connect 15 0 23 0;
#X connect 16 0 18 0;
#X connect 16 0 24 0;
#X connect 17 0 19 0;
#X connect 17 0 25 0;
#X connect 18 0 22 0;
#X connect 18 0 23 0;
#X connect 18 0 25 0;
#X connect 19 0 22 0;
#X connect 19 0 23 0;
#X connect 19 0 24 0;
#X connect 20 0 13 0;
#X connect 20 1 15 0;
#X connect 20 2 16 0;
#X connect 20 3 17 0;
#X connect 21 0 20 0;
#X connect 21 0 27 0;
#X connect 26 0 21 0;
#X connect 28 0 26 0;
#X connect 29 0 28 0;
#X connect 30 0 26 0;
#X restore 49 569 pd gender-mode;
#N canvas 0 50 596 495 genderfuck-mode 0;
#X obj 9 9 inlet;
#X obj 89 9 inlet;
#X obj 169 9 inlet;
#X obj 259 9 inlet;
#X obj 9 39 route click;
#X obj 89 39 route click;
#X obj 169 39 route click;
#X obj 259 39 route click;
#X msg 9 69 0;
#X msg 89 69 1;
#X msg 169 69 2;
#X msg 259 69 3;
#X msg 19 309 color #575757 #000000 #ffffff;
#X msg 109 339 color #575757 #000000 #ffffff;
#X msg 189 369 color #575757 #000000 #ffffff;
#X msg 279 399 color #575757 #000000 #ffffff;
#X obj 9 189 select 0 1 2 3;
#X msg 9 219 color #575757 #000000 #7600ff;
#X msg 89 249 color #575757 #000000 #7600ff;
#X msg 169 279 color #575757 #000000 #7600ff;
#X msg 259 309 color #575757 #000000 #7600ff;
#X obj 9 152 int;
#X obj 9 459 s lipstick;
#X obj 99 459 s supersoaker;
#X obj 239 459 s axe;
#X obj 329 459 s testtube;
#X obj 9 109 nbx 4 18 -1e+37 1e+37 0 0 empty empty empty 0 -8 0 10 #191919 #ffffff #ffffff 0 256;
#X obj 119 189 s genderfuck-mode;
#X obj 339 34 r genderfuck-mode;
#X obj 339 69 param GENDERFUCK-mode;
#X obj 519 69 loadbang;
#X connect 0 0 4 0;
#X connect 1 0 5 0;
#X connect 2 0 6 0;
#X connect 3 0 7 0;
#X connect 4 0 8 0;
#X connect 5 0 9 0;
#X connect 6 0 10 0;
#X connect 7 0 11 0;
#X connect 8 0 26 0;
#X connect 9 0 26 0;
#X connect 10 0 26 0;
#X connect 11 0 26 0;
#X connect 12 0 23 0;
#X connect 12 0 24 0;
#X connect 12 0 25 0;
#X connect 13 0 22 0;
#X connect 13 0 24 0;
#X connect 13 0 25 0;
#X connect 14 0 22 0;
#X connect 14 0 23 0;
#X connect 14 0 25 0;
#X connect 15 0 22 0;
#X connect 15 0 23 0;
#X connect 15 0 24 0;
#X connect 16 0 17 0;
#X connect 16 1 18 0;
#X connect 16 2 19 0;
#X connect 16 3 20 0;
#X connect 17 0 12 0;
#X connect 17 0 22 0;
#X connect 18 0 13 0;
#X connect 18 0 23 0;
#X connect 19 0 14 0;
#X connect 19 0 24 0;
#X connect 20 0 15 0;
#X connect 20 0 25 0;
#X connect 21 0 16 0;
#X connect 21 0 27 0;
#X connect 26 0 21 0;
#X connect 28 0 29 0;
#X connect 29 0 26 0;
#X connect 30 0 26 0;
#X restore 69 599 pd genderfuck-mode;
#N canvas 0 50 596 495 insight-mode 0;
#X obj 39 13 inlet;
#X obj 119 13 inlet;
#X obj 199 13 inlet;
#X obj 279 13 inlet;
#X obj 39 43 route click;
#X obj 119 43 route click;
#X obj 199 43 route click;
#X obj 279 43 route click;
#X msg 39 73 0;
#X msg 119 73 1;
#X msg 199 73 2;
#X msg 279 73 3;
#X msg 19 329 color #575757 #000000 #ffffff;
#X msg 109 359 color #575757 #000000 #ffffff;
#X msg 189 389 color #575757 #000000 #ffffff;
#X msg 279 419 color #575757 #000000 #ffffff;
#X obj 139 203 select 0 1 2 3;
#X msg 9 239 color #575757 #000000 \$1;
#X obj 9 213 colors;
#X msg 9 183 hsl \$1 100 50;
#X obj 9 153 rand.i 0 360;
#X obj 139 163 int;
#X msg 89 269 color #575757 #000000 #ff0088;
#X msg 169 299 color #575757 #000000 #ff0088;
#X msg 259 329 color #575757 #000000 #ff0088;
#X obj 169 459 s orb;
#X obj 259 459 s feather;
#X obj 89 459 s dna;
#X obj 9 459 s trans;
#X obj 139 115 nbx 4 18 -1e+37 1e+37 0 0 empty empty empty 0 -8 0 10 #191919 #ffffff #ffffff 0 256;
#X obj 249 209 s insight-mode;
#X obj 359 49 r insight-mode;
#X obj 359 79 param INSIGHT-mode;
#X obj 519 79 loadbang;
#X connect 0 0 4 0;
#X connect 1 0 5 0;
#X connect 2 0 6 0;
#X connect 3 0 7 0;
#X connect 4 0 8 0;
#X connect 5 0 9 0;
#X connect 6 0 10 0;
#X connect 7 0 11 0;
#X connect 8 0 29 0;
#X connect 9 0 29 0;
#X connect 10 0 29 0;
#X connect 11 0 29 0;
#X connect 12 0 25 0;
#X connect 12 0 26 0;
#X connect 12 0 27 0;
#X connect 13 0 25 0;
#X connect 13 0 26 0;
#X connect 13 0 28 0;
#X connect 14 0 26 0;
#X connect 14 0 27 0;
#X connect 14 0 28 0;
#X connect 15 0 25 0;
#X connect 15 0 27 0;
#X connect 15 0 28 0;
#X connect 16 0 20 0;
#X connect 16 1 22 0;
#X connect 16 2 23 0;
#X connect 16 3 24 0;
#X connect 17 0 12 0;
#X connect 17 0 28 0;
#X connect 18 0 17 0;
#X connect 19 0 18 0;
#X connect 20 0 19 0;
#X connect 21 0 16 0;
#X connect 21 0 30 0;
#X connect 22 0 13 0;
#X connect 22 0 27 0;
#X connect 23 0 14 0;
#X connect 23 0 25 0;
#X connect 24 0 15 0;
#X connect 24 0 26 0;
#X connect 29 0 21 0;
#X connect 31 0 32 0;
#X connect 32 0 29 0;
#X connect 33 0 29 0;
#X restore 89 629 pd insight-mode;
#N canvas 0 50 596 495 gay-mode 0;
#X obj 9 9 inlet;
#X obj 89 9 inlet;
#X obj 169 9 inlet;
#X obj 249 9 inlet;
#X obj 9 39 route click;
#X obj 89 39 route click;
#X obj 169 39 route click;
#X obj 249 39 route click;
#X msg 9 69 0;
#X msg 89 69 1;
#X msg 169 69 2;
#X msg 249 69 3;
#X msg 19 309 color #575757 #000000 #ffffff;
#X msg 109 339 color #575757 #000000 #ffffff;
#X msg 189 369 color #575757 #000000 #ffffff;
#X msg 279 399 color #575757 #000000 #ffffff;
#X obj 9 189 select 0 1 2 3;
#X msg 9 219 color #575757 #000000 #a1ff00;
#X msg 89 249 color #575757 #000000 #a1ff00;
#X msg 169 279 color #575757 #000000 #a1ff00;
#X msg 259 309 color #575757 #000000 #a1ff00;
#X obj 9 143 int;
#X obj 9 459 s clover;
#X obj 89 459 s dharma;
#X obj 189 459 s atom;
#X obj 279 459 s dino;
#X obj 9 109 nbx 4 18 -1e+37 1e+37 0 0 empty empty empty 0 -8 0 10 #191919 #ffffff #ffffff 0 256;
#X obj 119 189 s gay-mode;
#X obj 359 34 r gay-mode;
#X obj 359 69 param GAY-mode;
#X obj 499 69 loadbang;
#X connect 0 0 4 0;
#X connect 1 0 5 0;
#X connect 2 0 6 0;
#X connect 3 0 7 0;
#X connect 4 0 8 0;
#X connect 5 0 9 0;
#X connect 6 0 10 0;
#X connect 7 0 11 0;
#X connect 8 0 26 0;
#X connect 9 0 26 0;
#X connect 10 0 26 0;
#X connect 11 0 26 0;
#X connect 12 0 23 0;
#X connect 12 0 24 0;
#X connect 12 0 25 0;
#X connect 13 0 22 0;
#X connect 13 0 24 0;
#X connect 13 0 25 0;
#X connect 14 0 22 0;
#X connect 14 0 23 0;
#X connect 14 0 25 0;
#X connect 15 0 22 0;
#X connect 15 0 23 0;
#X connect 15 0 24 0;
#X connect 16 0 17 0;
#X connect 16 1 18 0;
#X connect 16 2 19 0;
#X connect 16 3 20 0;
#X connect 17 0 12 0;
#X connect 17 0 22 0;
#X connect 18 0 13 0;
#X connect 18 0 23 0;
#X connect 19 0 14 0;
#X connect 19 0 24 0;
#X connect 20 0 15 0;
#X connect 20 0 25 0;
#X connect 21 0 16 0;
#X connect 21 0 27 0;
#X connect 26 0 21 0;
#X connect 28 0 29 0;
#X connect 29 0 26 0;
#X connect 30 0 26 0;
#X restore 219 569 pd gay-mode;
#N canvas 0 50 596 495 gaysex-mode 0;
#X obj 9 9 inlet;
#X obj 89 9 inlet;
#X obj 169 9 inlet;
#X obj 259 9 inlet;
#X obj 9 39 route click;
#X obj 89 39 route click;
#X obj 169 39 route click;
#X obj 259 39 route click;
#X msg 9 69 0;
#X msg 89 69 1;
#X msg 169 69 2;
#X msg 259 69 3;
#X msg 19 309 color #575757 #000000 #ffffff;
#X msg 109 339 color #575757 #000000 #ffffff;
#X msg 189 369 color #575757 #000000 #ffffff;
#X msg 279 399 color #575757 #000000 #ffffff;
#X obj 9 189 select 0 1 2 3;
#X msg 9 219 color #575757 #000000 #00abff;
#X msg 89 249 color #575757 #000000 #00abff;
#X msg 169 279 color #575757 #000000 #00abff;
#X msg 259 309 color #575757 #000000 #00abff;
#X obj 9 142 int;
#X obj 9 459 s wettt;
#X obj 89 459 s kiss;
#X obj 169 459 s fire;
#X obj 259 459 s rainbow;
#X obj 9 109 nbx 4 18 -1e+37 1e+37 0 0 empty empty empty 0 -8 0 10 #191919 #ffffff #ffffff 0 256;
#X obj 139 189 s gaysex-mode;
#X obj 349 39 r gaysex-mode;
#X obj 349 69 param GAYSEX-mode;
#X obj 509 69 loadbang;
#X connect 0 0 4 0;
#X connect 1 0 5 0;
#X connect 2 0 6 0;
#X connect 3 0 7 0;
#X connect 4 0 8 0;
#X connect 5 0 9 0;
#X connect 6 0 10 0;
#X connect 7 0 11 0;
#X connect 8 0 26 0;
#X connect 9 0 26 0;
#X connect 10 0 26 0;
#X connect 11 0 26 0;
#X connect 12 0 23 0;
#X connect 12 0 24 0;
#X connect 12 0 25 0;
#X connect 13 0 22 0;
#X connect 13 0 24 0;
#X connect 13 0 25 0;
#X connect 14 0 22 0;
#X connect 14 0 23 0;
#X connect 14 0 25 0;
#X connect 15 0 22 0;
#X connect 15 0 23 0;
#X connect 15 0 24 0;
#X connect 16 0 17 0;
#X connect 16 1 18 0;
#X connect 16 2 19 0;
#X connect 16 3 20 0;
#X connect 17 0 12 0;
#X connect 17 0 22 0;
#X connect 18 0 13 0;
#X connect 18 0 23 0;
#X connect 19 0 14 0;
#X connect 19 0 24 0;
#X connect 20 0 15 0;
#X connect 20 0 25 0;
#X connect 21 0 16 0;
#X connect 21 0 27 0;
#X connect 26 0 21 0;
#X connect 28 0 29 0;
#X connect 29 0 26 0;
#X connect 30 0 26 0;
#X restore 249 599 pd gaysex-mode;
#N canvas 0 50 596 495 enchantment-mode 0;
#X obj 9 9 inlet;
#X obj 89 9 inlet;
#X obj 169 9 inlet;
#X obj 249 9 inlet;
#X obj 9 39 route click;
#X obj 89 39 route click;
#X obj 169 39 route click;
#X obj 249 39 route click;
#X msg 9 69 0;
#X msg 89 69 1;
#X msg 169 69 2;
#X msg 249 69 3;
#X msg 19 309 color #575757 #000000 #ffffff;
#X msg 109 339 color #575757 #000000 #ffffff;
#X msg 189 369 color #575757 #000000 #ffffff;
#X msg 279 399 color #575757 #000000 #ffffff;
#X obj 9 189 select 0 1 2 3;
#X msg 9 219 color #575757 #000000 #ffacab;
#X msg 89 249 color #575757 #000000 #ffacab;
#X msg 169 279 color #575757 #000000 #ffacab;
#X msg 259 309 color #575757 #000000 #ffacab;
#X obj 9 143 int;
#X obj 9 459 s cat;
#X obj 89 459 s shrimp;
#X obj 179 459 s mushroom;
#X obj 299 459 s 8ball;
#X obj 9 109 nbx 4 18 -1e+37 1e+37 0 0 empty empty empty 0 -8 0 10 #191919 #ffffff #ffffff 0 256;
#X obj 119 189 s enchantment-mode;
#X obj 329 39 r enchantment-mode;
#X obj 329 69 param ENCHANTMENT-mode;
#X obj 523 69 loadbang;
#X connect 0 0 4 0;
#X connect 1 0 5 0;
#X connect 2 0 6 0;
#X connect 3 0 7 0;
#X connect 4 0 8 0;
#X connect 5 0 9 0;
#X connect 6 0 10 0;
#X connect 7 0 11 0;
#X connect 8 0 26 0;
#X connect 9 0 26 0;
#X connect 10 0 26 0;
#X connect 11 0 26 0;
#X connect 12 0 23 0;
#X connect 12 0 24 0;
#X connect 12 0 25 0;
#X connect 13 0 22 0;
#X connect 13 0 24 0;
#X connect 13 0 25 0;
#X connect 14 0 22 0;
#X connect 14 0 23 0;
#X connect 14 0 25 0;
#X connect 15 0 22 0;
#X connect 15 0 23 0;
#X connect 15 0 24 0;
#X connect 16 0 17 0;
#X connect 16 1 18 0;
#X connect 16 2 19 0;
#X connect 16 3 20 0;
#X connect 17 0 12 0;
#X connect 17 0 22 0;
#X connect 18 0 13 0;
#X connect 18 0 23 0;
#X connect 19 0 14 0;
#X connect 19 0 24 0;
#X connect 20 0 15 0;
#X connect 20 0 25 0;
#X connect 21 0 16 0;
#X connect 21 0 27 0;
#X connect 26 0 21 0;
#X connect 28 0 29 0;
#X connect 29 0 26 0;
#X connect 30 0 26 0;
#X restore 269 629 pd enchantment-mode;
#N canvas 0 50 596 495 doll-mode 0;
#X obj 9 9 inlet;
#X obj 89 9 inlet;
#X obj 169 9 inlet;
#X obj 259 9 inlet;
#X obj 9 39 route click;
#X obj 89 39 route click;
#X obj 169 39 route click;
#X obj 259 39 route click;
#X msg 9 69 0;
#X msg 89 69 1;
#X msg 169 69 2;
#X msg 259 69 3;
#X msg 19 319 color #575757 #000000 #ffffff;
#X msg 109 349 color #575757 #000000 #ffffff;
#X msg 189 379 color #575757 #000000 #ffffff;
#X msg 279 409 color #575757 #000000 #ffffff;
#X obj 9 199 select 0 1 2 3;
#X msg 9 229 color #575757 #000000 #ff003f;
#X msg 89 259 color #575757 #000000 #ff003f;
#X msg 169 289 color #575757 #000000 #ff003f;
#X msg 259 319 color #575757 #000000 #ff003f;
#X obj 9 152 int;
#X obj 9 459 s 2lungs;
#X obj 99 459 s tooth;
#X obj 179 459 s heart;
#X obj 269 459 s brain;
#X obj 9 119 nbx 4 18 -1e+37 1e+37 0 0 empty empty empty 0 -8 0 10 #191919 #ffffff #ffffff 0 256;
#X obj 119 199 s doll-mode;
#X obj 349 39 r doll-mode;
#X obj 349 69 param DOLL-mode;
#X obj 489 69 loadbang;
#X connect 0 0 4 0;
#X connect 1 0 5 0;
#X connect 2 0 6 0;
#X connect 3 0 7 0;
#X connect 4 0 8 0;
#X connect 5 0 9 0;
#X connect 6 0 10 0;
#X connect 7 0 11 0;
#X connect 8 0 26 0;
#X connect 9 0 26 0;
#X connect 10 0 26 0;
#X connect 11 0 26 0;
#X connect 12 0 23 0;
#X connect 12 0 24 0;
#X connect 12 0 25 0;
#X connect 13 0 22 0;
#X connect 13 0 24 0;
#X connect 13 0 25 0;
#X connect 14 0 22 0;
#X connect 14 0 23 0;
#X connect 14 0 25 0;
#X connect 15 0 22 0;
#X connect 15 0 23 0;
#X connect 15 0 24 0;
#X connect 16 0 17 0;
#X connect 16 1 18 0;
#X connect 16 2 19 0;
#X connect 16 3 20 0;
#X connect 17 0 12 0;
#X connect 17 0 22 0;
#X connect 18 0 13 0;
#X connect 18 0 23 0;
#X connect 19 0 14 0;
#X connect 19 0 24 0;
#X connect 20 0 15 0;
#X connect 20 0 25 0;
#X connect 21 0 16 0;
#X connect 21 0 27 0;
#X connect 26 0 21 0;
#X connect 28 0 29 0;
#X connect 29 0 26 0;
#X connect 30 0 26 0;
#X restore 419 569 pd doll-mode;
#N canvas 0 50 596 495 uwu-mode 0;
#X obj 9 9 inlet;
#X obj 89 9 inlet;
#X obj 169 9 inlet;
#X obj 259 9 inlet;
#X obj 9 39 route click;
#X obj 89 39 route click;
#X obj 169 39 route click;
#X obj 259 39 route click;
#X msg 9 69 0;
#X msg 89 69 1;
#X msg 169 69 2;
#X msg 259 69 3;
#X msg 19 309 color #575757 #000000 #ffffff;
#X msg 109 339 color #575757 #000000 #ffffff;
#X msg 189 369 color #575757 #000000 #ffffff;
#X msg 279 399 color #575757 #000000 #ffffff;
#X obj 9 189 select 0 1 2 3;
#X msg 9 219 color #575757 #000000 #ff4900;
#X msg 89 249 color #575757 #000000 #ff4900;
#X msg 169 279 color #575757 #000000 #ff4900;
#X msg 259 309 color #575757 #000000 #ff4900;
#X obj 9 143 int;
#X obj 9 459 s scissors;
#X obj 109 459 s needle;
#X obj 199 459 s candy;
#X obj 289 459 s bandage;
#X obj 9 109 nbx 4 18 -1e+37 1e+37 0 0 empty empty empty 0 -8 0 10 #191919 #ffffff #ffffff 0 256;
#X obj 129 189 s uwu-mode;
#X obj 339 35 r uwu-mode;
#X obj 339 69 param UWU-mode;
#X obj 479 69 loadbang;
#X connect 0 0 4 0;
#X connect 1 0 5 0;
#X connect 2 0 6 0;
#X connect 3 0 7 0;
#X connect 4 0 8 0;
#X connect 5 0 9 0;
#X connect 6 0 10 0;
#X connect 7 0 11 0;
#X connect 8 0 26 0;
#X connect 9 0 26 0;
#X connect 10 0 26 0;
#X connect 11 0 26 0;
#X connect 12 0 23 0;
#X connect 12 0 24 0;
#X connect 12 0 25 0;
#X connect 13 0 22 0;
#X connect 13 0 24 0;
#X connect 13 0 25 0;
#X connect 14 0 22 0;
#X connect 14 0 23 0;
#X connect 14 0 25 0;
#X connect 15 0 22 0;
#X connect 15 0 23 0;
#X connect 15 0 24 0;
#X connect 16 0 17 0;
#X connect 16 1 18 0;
#X connect 16 2 19 0;
#X connect 16 3 20 0;
#X connect 17 0 12 0;
#X connect 17 0 22 0;
#X connect 18 0 13 0;
#X connect 18 0 23 0;
#X connect 19 0 14 0;
#X connect 19 0 24 0;
#X connect 20 0 15 0;
#X connect 20 0 25 0;
#X connect 21 0 16 0;
#X connect 21 0 27 0;
#X connect 26 0 21 0;
#X connect 28 0 29 0;
#X connect 29 0 26 0;
#X connect 30 0 26 0;
#X restore 439 599 pd uwu-mode;
#N canvas 0 50 506 516 randomize 0;
#X obj 99 9 inlet;
#X obj 99 49 route click;
#X obj 99 89 select 1;
#X obj 19 354 rand.i 0 3;
#X obj 189 355 rand.i 0 3;
#X obj 369 354 rand.i 0 3;
#X obj 19 407 rand.i 0 3;
#X obj 189 408 rand.i 0 3;
#X obj 369 407 rand.i 0 3;
#X obj 19 456 rand.i 0 3;
#X obj 189 456 rand.i 0 3;
#X obj 369 456 rand.i 0 3;
#X obj 329 159 rand.f 0 1;
#X obj 29 214 rand.f 0 1;
#X obj 329 214 rand.f 0 1;
#X obj 329 264 rand.f 0 1;
#X obj 189 264 rand.f 0 1;
#X obj 29 264 rand.f 0 1;
#X obj 29 159 rand.f 0 2000;
#X obj 189 159 rand.f -1 1;
#X obj 189 214 rand.f -512 512;
#X obj 29 184 s gender;
#X obj 189 184 s gay;
#X obj 29 239 s genderfuck;
#X obj 29 289 s insight;
#X obj 189 239 s gaysex;
#X obj 189 289 s enchantment;
#X obj 329 184 s doll;
#X obj 329 239 s plsplsplsuwu;
#X obj 329 289 s witch;
#X obj 459 123 inlet;
#X obj 189 49 param randomize;
#X obj 189 378 s gay-mode;
#X obj 19 377 s gender-mode;
#X obj 19 430 s genderfuck-mode;
#X obj 19 479 s insight-mode;
#X obj 189 431 s gaysex-mode;
#X obj 189 479 s enchantment-mode;
#X obj 369 377 s doll-mode;
#X obj 369 430 s uwu-mode;
#X obj 369 479 s witch-mode;
#X connect 0 0 1 0;
#X connect 1 0 2 0;
#X connect 2 0 12 0;
#X connect 2 0 19 0;
#X connect 2 0 18 0;
#X connect 2 0 13 0;
#X connect 2 0 14 0;
#X connect 2 0 20 0;
#X connect 2 0 15 0;
#X connect 2 0 16 0;
#X connect 2 0 17 0;
#X connect 2 0 5 0;
#X connect 2 0 4 0;
#X connect 2 0 3 0;
#X connect 2 0 7 0;
#X connect 2 0 8 0;
#X connect 2 0 6 0;
#X connect 2 0 11 0;
#X connect 2 0 10 0;
#X connect 2 0 9 0;
#X connect 3 0 33 0;
#X connect 4 0 32 0;
#X connect 5 0 38 0;
#X connect 6 0 34 0;
#X connect 7 0 36 0;
#X connect 8 0 39 0;
#X connect 9 0 35 0;
#X connect 10 0 37 0;
#X connect 11 0 40 0;
#X connect 12 0 27 0;
#X connect 13 0 23 0;
#X connect 14 0 28 0;
#X connect 15 0 29 0;
#X connect 16 0 26 0;
#X connect 17 0 24 0;
#X connect 18 0 21 0;
#X connect 19 0 22 0;
#X connect 20 0 25 0;
#X connect 30 0 15 2;
#X connect 31 0 2 0;
#X restore 689 319 pd randomize;
#X obj 456 355 note 42 18 Inter izzy_\$0 0 255 255 255 0 25 25 25 0 0 izzy;
#N canvas 0 50 540 320 izzy 0;
#X obj 89 9 inlet;
#X obj 89 39 route click;
#X obj 89 69 select 1;
#X obj 89 99 tgl 25 0 empty empty empty 17 7 0 10 #191919 #ffffff #ffffff 0 1;
#X msg 49 219 range 0 1;
#X obj 89 139 select 0 1;
#X obj 111 279 outlet;
#X msg 239 189 color 94 182 94;
#X msg 189 219 color 255 255 255;
#X text 420 190 izzy;
#X text 419 220 puny mortal;
#X msg 111 189 range 0 100;
#X obj 369 279 outlet;
#X msg 349 219 1;
#X msg 369 189 100;
#X obj 239 279 outlet;
#X connect 0 0 1 0;
#X connect 1 0 2 0;
#X connect 2 0 3 0;
#X connect 3 0 5 0;
#X connect 4 0 6 0 32.................T....3C....E....9....fB....;
#X connect 5 0 13 0 32.................R....PP...fD....DD...vC....;
#X connect 5 0 8 0 32.................S....PF...vD....jA...vC....;
#X connect 5 0 4 0 32.................S....j8++++D....Y++++yC....;
#X connect 5 1 11 0;
#X connect 5 1 14 0 32.................G....HP...vA....BD...3A....;
#X connect 5 1 7 0 32.................G.....H...vA.....B...3A....;
#X connect 7 0 15 0;
#X connect 8 0 15 0 32.................T....HC....E....x....fB....;
#X connect 11 0 6 0;
#X connect 13 0 12 0 32.................T....PA....E....T....fB....;
#X connect 14 0 12 0;
#X restore 659 229 pd izzy;
#N canvas 0 50 598 300 free 0;
#X obj 9 9 inlet;
#X obj 9 34 route click;
#X obj 9 59 select 0 1;
#X msg 529 209 label 🧿;
#X msg 459 209 label 💖;
#X msg 389 209 label 🦋;
#X msg 9 189 label 💧;
#X msg 117 109 color #575757 #TransRights #191919;
#X msg 357 109 color #575757 #TransRights #ff003f;
#X msg 99 189 label 💧;
#X obj 9 259 s k1;
#X obj 72 259 s k2;
#X obj 135 259 s k3;
#X obj 198 259 s k4;
#X obj 261 259 s k5;
#X obj 329 259 s k6;
#X obj 389 259 s k7;
#X obj 459 259 s k8;
#X obj 529 259 s k9;
#X connect 0 0 1 0;
#X connect 1 0 2 0;
#X connect 2 0 7 0;
#X connect 2 0 5 0;
#X connect 2 0 4 0;
#X connect 2 0 3 0;
#X connect 2 0 6 0;
#X connect 2 1 8 0;
#X connect 2 1 9 0;
#X connect 3 0 18 0;
#X connect 4 0 17 0;
#X connect 5 0 16 0;
#X connect 6 0 10 0;
#X connect 6 0 11 0;
#X connect 6 0 12 0;
#X connect 6 0 13 0;
#X connect 6 0 14 0;
#X connect 6 0 15 0;
#X connect 7 0 10 0;
#X connect 7 0 11 0;
#X connect 7 0 12 0;
#X connect 7 0 13 0;
#X connect 7 0 14 0;
#X connect 7 0 15 0;
#X connect 7 0 16 0;
#X connect 7 0 17 0;
#X connect 7 0 18 0;
#X connect 8 0 10 0;
#X connect 8 0 11 0;
#X connect 8 0 12 0;
#X connect 8 0 13 0;
#X connect 8 0 14 0;
#X connect 8 0 15 0;
#X connect 8 0 16 0;
#X connect 8 0 17 0;
#X connect 8 0 18 0;
#X connect 9 0 10 0;
#X connect 9 0 11 0;
#X connect 9 0 12 0;
#X connect 9 0 13 0;
#X connect 9 0 14 0;
#X connect 9 0 15 0;
#X connect 9 0 16 0;
#X connect 9 0 17 0;
#X connect 9 0 18 0;
#X restore -71 469 pd free;
#X obj 749 219 cnv 15 21 21 empty empty 💀 -618 -3 0 39 #575757 #cdff49 0;
#N canvas 0 50 450 300 clear-delay-line 0;
#X obj 119 19 inlet;
#X obj 119 59 route click;
#X obj 119 99 select 1;
#X msg 119 149 clear;
#X obj 119 199 s clear_delay_line;
#X obj 209 59 param clear-delay-line;
#X connect 0 0 1 0;
#X connect 1 0 2 0;
#X connect 2 0 3 0;
#X connect 3 0 4 0;
#X connect 5 0 2 0;
#X restore -131 249 pd clear-delay-line;
#X obj 461 18 note 35 14 Inter empty 0 255 255 255 0 25 25 25 0 0 doll;
#X obj 299 18 note 34 14 Inter empty 0 255 255 255 0 25 25 25 0 0 gay;
#X obj 129 17 note 55 14 Inter empty 0 255 255 255 0 25 25 25 0 0 gender;
#X obj 31 112 note 43 14 Inter empty 0 255 255 255 0 25 25 25 0 0 aura;
#X obj 32 268 note 42 14 Inter empty 0 255 255 255 0 25 25 25 0 0 fuck;
#X obj 24 428 note 52 14 Inter empty 0 255 255 255 0 25 25 25 0 0 magic;
#X obj 9 9 knob 61 -96 24 0 0 empty empty #373737 #191919 #ffffff 1 0 0 0 1 350 0 0 0;
#X obj 687 9 cnv 15 21 21 empty empty ▼ -667 34 0 43 #575757 #ff66cc 0;
#X obj 16 62 nbx 4 18 -96 24 0 0 empty pregain empty 0 -8 0 10 #191919 #ffffff #ffffff 0 256;
#X obj -41 79 int;
#X msg -101 79 set \$1;
#X obj 559 473 knob 61 -96 24 0 0 empty empty #373737 #191919 #ffffff 1 0 0 0 1 350 0 0 0;
#X obj 566 463 nbx 4 18 -96 24 0 0 empty postgain empty 0 -8 0 10 #191919 #ffffff #ffffff 0 256;
#X obj 639 559 int;
#X msg 639 519 set \$1;
#X obj 659 9 cnv 15 21 21 empty empty ▲ -89 491 0 43 #575757 #ff66cc 0;
#X obj -111 119 param pregain;
#X obj 639 589 param postgain;
#N canvas 0 50 450 430 reset 0;
#X obj 39 19 inlet;
#X obj 39 59 route click;
#X obj 39 99 select 1;
#X msg 39 139 0;
#X obj 9 189 s gender;
#X obj 9 219 s genderfuck;
#X obj 9 249 s insight;
#X obj 129 189 s gay;
#X obj 129 219 s gaysex;
#X obj 129 249 s enchantment;
#X obj 249 219 s plsplsplsuwu;
#X obj 249 249 s witch;
#X obj 9 329 s gender-mode;
#X obj 9 359 s genderfuck-mode;
#X obj 9 389 s insight-mode;
#X obj 169 329 s gay-mode;
#X obj 169 359 s gaysex-mode;
#X obj 149 389 s enchantment-mode;
#X obj 309 329 s doll-mode;
#X obj 309 359 s uwu-mode;
#X obj 309 389 s witch-mode;
#X obj 249 189 s doll;
#X obj 139 59 param reset;
#X connect 0 0 1 0;
#X connect 1 0 2 0;
#X connect 2 0 3 0;
#X connect 3 0 4 0;
#X connect 3 0 5 0;
#X connect 3 0 6 0;
#X connect 3 0 7 0;
#X connect 3 0 8 0;
#X connect 3 0 9 0;
#X connect 3 0 10 0;
#X connect 3 0 11 0;
#X connect 3 0 12 0;
#X connect 3 0 13 0;
#X connect 3 0 14 0;
#X connect 3 0 15 0;
#X connect 3 0 16 0;
#X connect 3 0 17 0;
#X connect 3 0 18 0;
#X connect 3 0 19 0;
#X connect 3 0 20 0;
#X connect 3 0 21 0;
#X connect 22 0 2 0;
#X restore -81 339 pd reset;
#X obj 119 -271 r gender;
#X obj 119 -211 s gender;
#X obj 269 -271 r gay;
#X obj 269 -211 s gay;
#X obj 429 -271 r doll;
#X obj 429 -211 s doll;
#X obj 119 -181 r genderfuck;
#X obj 119 -121 s genderfuck;
#X obj 269 -181 r gaysex;
#X obj 269 -121 s gaysex;
#X obj 429 -181 r plsplsplsuwu;
#X obj 429 -121 s plsplsplsuwu;
#X obj 119 -91 r insight;
#X obj 119 -31 s insight;
#X obj 269 -91 r enchantment;
#X obj 269 -31 s enchantment;
#X obj 429 -91 r witch;
#X obj 429 -31 s witch;
#X obj 119 -241 param GENDER;
#X obj 119 -151 param GENDERFUCK;
#X obj 119 -61 param INSIGHT;
#X obj 269 -241 param GAY;
#X obj 269 -151 param GAYSEX;
#X obj 269 -61 param ENCHANTMENT;
#X obj 429 -241 param DOLL;
#X obj 429 -151 param PLSPLSPLSUWU;
#X obj 429 -61 param WITCH;
#X obj 549 -61 loadbang;
#X text 619 -62 to get a 0 if the param is at 0;
#X text 619 -42 otherwise we don't init;
#X connect 0 0 128 0;
#X connect 1 0 126 0;
#X connect 2 0 125 0;
#X connect 3 0 123 0;
#X connect 4 0 147 0;
#X connect 5 0 113 2;
#X connect 6 0 113 3;
#X connect 7 0 113 1;
#X connect 8 0 113 0;
#X connect 9 0 120 2;
#X connect 10 0 120 3;
#X connect 11 0 120 1;
#X connect 12 0 120 0;
#X connect 13 0 117 2;
#X connect 14 0 117 3;
#X connect 15 0 117 1;
#X connect 16 0 117 0;
#X connect 17 0 122 2;
#X connect 18 0 122 3;
#X connect 19 0 122 1;
#X connect 20 0 122 0;
#X connect 21 0 119 2;
#X connect 22 0 119 3;
#X connect 23 0 119 1;
#X connect 24 0 119 0;
#X connect 25 0 116 2;
#X connect 26 0 116 3;
#X connect 27 0 116 1;
#X connect 28 0 116 0;
#X connect 29 0 121 2;
#X connect 30 0 121 3;
#X connect 31 0 121 1;
#X connect 32 0 121 0;
#X connect 33 0 118 2;
#X connect 34 0 118 3;
#X connect 35 0 118 1;
#X connect 36 0 118 0;
#X connect 37 0 115 2;
#X connect 38 0 115 3;
#X connect 39 0 115 1;
#X connect 40 0 115 0;
#X connect 42 0 65 0;
#X connect 43 0 66 0;
#X connect 44 0 67 0;
#X connect 45 0 68 0;
#X connect 46 0 60 0;
#X connect 47 0 61 0;
#X connect 48 0 62 0;
#X connect 49 0 63 0;
#X connect 50 0 64 0;
#X connect 60 0 72 0;
#X connect 61 0 73 0;
#X connect 62 0 74 0;
#X connect 63 0 76 0;
#X connect 64 0 75 0;
#X connect 65 0 114 0;
#X connect 66 0 71 0;
#X connect 67 0 70 0;
#X connect 68 0 69 0;
#X connect 69 0 45 0;
#X connect 70 0 44 0;
#X connect 71 0 43 0;
#X connect 72 0 46 0;
#X connect 73 0 47 0;
#X connect 74 0 48 0;
#X connect 75 0 50 0;
#X connect 76 0 49 0;
#X connect 114 0 42 0;
#X connect 125 0 65 0;
#X connect 125 0 42 0;
#X connect 125 1 124 0;
#X connect 125 2 123 1;
#X connect 135 0 138 0;
#X connect 137 0 139 0;
#X connect 138 0 137 0;
#X connect 138 0 145 0;
#X connect 139 0 135 0;
#X connect 140 0 142 0;
#X connect 141 0 143 0;
#X connect 142 0 141 0;
#X connect 142 0 146 0;
#X connect 143 0 140 0;
#X connect 148 0 166 0;
#X connect 150 0 169 0;
#X connect 152 0 172 0;
#X connect 154 0 167 0;
#X connect 156 0 170 0;
#X connect 158 0 173 0;
#X connect 160 0 168 0;
#X connect 162 0 171 0;
#X connect 164 0 174 0;
#X connect 166 0 149 0;
#X connect 166 0 43 0 32.................F....j8+++uA....Y++++SP....;
#X connect 167 0 155 0;
#X connect 167 0 46 0 32.................D....j8+++OA....Y++++qT....;
#X connect 168 0 161 0;
#X connect 168 0 49 0 32.................G....j8++++A....Y++++CY....;
#X connect 169 0 151 0;
#X connect 169 0 44 0 32.................F....L9+++uA....i++++SP....;
#X connect 170 0 157 0;
#X connect 170 0 47 0 32.................F....L9+++uA....i++++qT....;
#X connect 171 0 163 0;
#X connect 171 0 50 0 32.................F....L9+++uA....i++++CY....;
#X connect 172 0 153 0;
#X connect 172 0 45 0 32.................F....L9+++uA....i++++SP....;
#X connect 173 0 159 0;
#X connect 173 0 48 0 32.................F....L9+++uA....i++++qT....;
#X connect 174 0 165 0;
#X connect 174 0 42 0 32.................G....L9++++A....i++++CY....;
#X connect 175 0 65 0;
#X connect 175 0 64 0;
#X connect 175 0 63 0;
#X connect 175 0 60 0;
#X connect 175 0 61 0;
#X connect 175 0 62 0;
#X connect 175 0 68 0;
#X connect 175 0 67 0;
#X connect 175 0 66 0;
#X coords 0 1 100 -1 631 551 1 0 0;
#X restore -1 -1 graph;
#N canvas 0 50 630 550 light 0;
#N canvas 0 50 450 250 (subpatch) 0;
#X obj 286 252 pad 31 31 255 255 255;
#X obj 309 195 pad 75 66 255 255 255;
#X obj -1 -1 cnv 15 631 551 empty empty empty 20 12 0 14 #000000 #ffffff 0;
#X obj 719 239 colors;
#X msg 719 209 hsl \$1 100 50;
#X msg 719 269 color #ffffff #ffffff \$1;
#X obj 719 179 rand.i 0 360;
#X obj 719 119 route click;
#X obj 719 149 select 1;
#X obj 649 379 cnv 15 21 21 empty o1 🧿 -836 -127 0 922 #ffffff #191919 0;
#X obj 657 429 cnv 15 21 21 empty o2 🧿 -507 -166 0 280 #ffffff #001219 0;
#X obj 639 -1 cnv 15 21 21 empty butterfly 🦋 -338 229 0 78 #ffffff #0048ff 0;
#X obj 149 129 note 0 37 Inter empty 0 255 255 255 0 25 25 25 0 0 our;
#X obj 209 139 note 0 35 Inter empty 0 255 255 255 0 25 25 25 0 0 love;
#X obj 179 179 note 0 27 Inter empty 0 255 255 255 0 25 25 25 0 0 our;
#X obj 219 179 note 0 43 Inter empty 0 255 255 255 0 25 25 25 0 0 love;
#X obj 719 299 s butterfly;
#X obj 569 519 note 0 14 Inter empty 0 255 255 255 0 25 25 25 0 0 tomara;
#X obj 719 359 route click;
#X obj 719 389 select 1;
#X obj 719 419 count 2;
#X obj 709 729 s o1;
#X obj 759 729 s o2;
#X msg 709 509 color #ffffff TRANSRIGHTS #191919;
#X msg 729 539 color #ffffff TRANSRIGHTS #001219;
#X obj 719 449 select 0 1 2;
#X msg 769 579 color #ffffff TRANSRIGHTS #093c3c;
#X msg 789 609 color #ffffff TRANSRIGHTS #101a4a;
#X msg 819 649 color #ffffff TRANSRIGHTS #010f19;
#X msg 829 689 color #ffffff TRANSRIGHTS #14321b;
#X connect 0 0 18 0;
#X connect 1 0 7 0;
#X connect 3 0 5 0;
#X connect 4 0 3 0;
#X connect 5 0 16 0;
#X connect 6 0 4 0;
#X connect 7 0 8 0;
#X connect 8 0 6 0;
#X connect 18 0 19 0;
#X connect 19 0 20 0;
#X connect 20 0 25 0;
#X connect 23 0 21 0;
#X connect 23 0 24 0;
#X connect 24 0 22 0;
#X connect 25 0 23 0;
#X connect 25 1 26 0;
#X connect 25 2 28 0;
#X connect 26 0 21 0;
#X connect 26 0 27 0;
#X connect 27 0 22 0;
#X connect 28 0 21 0;
#X connect 28 0 29 0;
#X connect 29 0 22 0;
#X coords 0 1 100 -1 631 551 1 0 0;
#X restore -1 -1 graph;
#X text 19 638 https://docs.google.com/document/d/1lR4NWLlCbBAxrXdRiVn82zC3iiF7fATPtVnPA2C1TwU/preview, f 81;
#X restore 493 519 pd light;
#N canvas 0 50 630 550 void 0;
#X obj 199 509 dac~;
#X obj 199 269 adc~;
#X text 279 208 Hey.;
#X obj 199 399 clip~ -1 1;
#X obj 299 399 clip~ -1 1;
#X obj 379 269 r pregain;
#X obj 379 297 db2lin;
#X obj 379 425 db2lin;
#X obj 379 399 r postgain;
#X obj 199 338 *~ 1;
#X obj 299 339 *~ 1;
#X obj 199 469 *~ 1;
#X obj 299 469 *~ 1;
#X obj 199 425 bitnormal~;
#X obj 299 425 bitnormal~;
#X obj 269 59 loadbang;
#X obj 269 89 s patch-load;
#X obj 199 369 VOID;
#X obj 299 369 VOID;
#X connect 1 0 9 0;
#X connect 1 1 10 0 32.................Y....XF...PF....lA...HC....;
#X connect 3 0 13 0;
#X connect 4 0 14 0;
#X connect 5 0 6 0;
#X connect 6 0 10 1 32.................Q....T7+++eD....E++++iA....;
#X connect 6 0 9 1 32.................K....D1++++B....g8+++eA....;
#X connect 7 0 11 1 32.................I....Tz+++eB....E8+++mA....;
#X connect 7 0 12 1 32.................R....z6+++uD....89+++mA....;
#X connect 8 0 7 0;
#X connect 9 0 17 0;
#X connect 10 0 18 0;
#X connect 11 0 0 0;
#X connect 12 0 0 1 32.................K....r4++++B....a9+++SA....;
#X connect 13 0 11 0;
#X connect 14 0 12 0;
#X connect 15 0 16 0;
#X connect 17 0 3 0;
#X connect 18 0 4 0;
#X restore 79 519 pd void;
