#N canvas 827 239 527 327 12;
#N canvas 0 50 340 340 dna 1;
#X obj 79 9 inlet~;
#X obj 149 9 inlet~;
#X obj 79 309 outlet~;
#X obj 159 309 outlet~;
#X obj 269 49 switch~;
#X obj 269 9 inlet;
#N canvas 0 50 450 300 delay-write 0;
#X obj 9 9 inlet~;
#X obj 199 9 inlet~;
#X obj 9 269 outlet~;
#X text 69 268 for order of execution;
#X obj 199 149 del~ in \$0-del-imag 10000;
#X obj 9 149 del~ in \$0-del-real 10000;
#X connect 0 0 5 0 empty;
#X connect 1 0 4 0 empty;
#X restore 79 79 pd delay-write;
#N canvas 0 50 600 300 delay-read 0;
#X text 69 8 for order of execution;
#X obj 9 9 inlet~;
#X obj 9 269 outlet~;
#X obj 149 269 outlet~;
#X obj 299 269 outlet~;
#X obj 449 269 outlet~;
#X obj 9 134 +~;
#X obj 182 126 r \$0-buff_ms;
#X obj 9 162 wrap2~;
#X obj 149 164 wrap2~;
#X obj 299 134 +~;
#X obj 482 126 r \$0-buff_ms;
#X obj 299 162 wrap2~;
#X obj 449 164 wrap2~;
#X obj 9 209 del~ out \$0-del-real;
#X obj 149 209 del~ out \$0-del-real;
#X obj 299 209 del~ out \$0-del-imag;
#X obj 449 209 del~ out \$0-del-imag;
#X connect 6 0 8 0 empty;
#X connect 7 0 8 2 empty;
#X connect 7 0 9 2 empty;
#X connect 8 0 14 0 empty;
#X connect 9 0 15 0 empty;
#X connect 10 0 12 0 empty;
#X connect 11 0 12 2 empty;
#X connect 11 0 13 2 empty;
#X connect 12 0 16 0 empty;
#X connect 13 0 17 0 empty;
#X connect 14 0 2 0 empty;
#X connect 15 0 3 0 empty;
#X connect 16 0 4 0 empty;
#X connect 17 0 5 0 empty;
#X restore 79 129 pd delay-read;
#N canvas 377 157 654 496 phase-accum 0;
#X obj 169 419 outlet~;
#X obj 342 419 outlet~;
#X obj 169 309 expr~ ($v1 * $v3) - ($v2 * $v4) \; ($v2 * $v3) + ($v1 * $v4);
#X obj 309 79 inlet~;
#X obj 379 79 inlet~;
#X obj 439 79 inlet~;
#X obj 499 79 inlet~;
#X obj 169 179 expr~ ($v1 * $v3) + ($v2 * $v4) \; ($v2 * $v3) - ($v1 * $v4), f 33;
#N canvas 228 78 542 340 phase_lock 0;
#X obj 385 133 lrshift~ 1;
#X obj 300 133 lrshift~ -1;
#X obj 285 225 +~;
#X obj 285 255 outlet~;
#X obj 283 47 inlet~;
#X obj 300 189 +~;
#X obj 157 137 lrshift~ 1;
#X obj 72 137 lrshift~ -1;
#X obj 57 229 +~;
#X obj 57 259 outlet~;
#X obj 55 51 inlet~;
#X obj 72 193 +~;
#X connect 0 0 5 1 empty;
#X connect 1 0 5 0 empty;
#X connect 2 0 3 0 empty;
#X connect 4 0 0 0 empty;
#X connect 4 0 1 0 empty;
#X connect 4 0 2 0 empty;
#X connect 5 0 2 1 empty;
#X connect 6 0 11 1 empty;
#X connect 7 0 11 0 empty;
#X connect 8 0 9 0 empty;
#X connect 10 0 6 0 empty;
#X connect 10 0 7 0 empty;
#X connect 10 0 8 0 empty;
#X connect 11 0 8 1 empty;
#X restore 169 229 pd phase_lock;
#N canvas 362 104 559 245 norm 0;
#X obj 352 180 outlet~;
#X obj 57 187 outlet~;
#X obj 317 31 inlet~;
#X obj 68 29 inlet~;
#X obj 57 127 expr~ $v1 / sqrt(pow ($v1 \, 2) + pow($v2 \, 2)) \; $v2 / sqrt(pow ($v1 \, 2) + pow($v2 \, 2)) \;;
#X obj 68 71 expr~ if($v1 == 0 && $v2 == 0 \, 1 \, $v1) \; $v2;
#X connect 2 0 5 1 empty;
#X connect 3 0 5 0 empty;
#X connect 4 0 1 0 empty;
#X connect 4 1 0 0 empty;
#X connect 5 0 4 0 empty;
#X connect 5 1 4 1 empty;
#X restore 169 269 pd norm;
#X obj 169 129 tabreceive~;
#X obj 259 129 tabreceive~;
#X obj 19 379 tabsend~;
#X obj 89 379 tabsend~;
#N canvas 0 50 511 300 arrays 0;
#X obj 38 107 v counter;
#X obj 68 137 + 1;
#X obj 38 166 pack f \$0;
#X msg 168 197 set arr\$1_\$2;
#X msg 38 195 rename arr\$1_\$2;
#X obj 38 226 array define;
#X msg 8 47 resize \$1;
#X obj 38 77 loadbang;
#X obj 8 17 r bins_\$0;
#X obj 279 110 v counter;
#X obj 309 140 + 1;
#X obj 279 169 pack f \$0;
#X msg 409 200 set arr\$1_\$2;
#X msg 279 198 rename arr\$1_\$2;
#X obj 259 229 array define;
#X obj 279 79 loadbang;
#X obj 168 269 outlet;
#X obj 409 269 outlet;
#X connect 0 0 1 0 32.................E....3A...PA....d....n.....;
#X connect 0 0 2 0 empty;
#X connect 1 0 0 0 48.................D....7A....A....e....j7++++3++++I++++O9++++y++++;
#X connect 2 0 4 0 empty;
#X connect 2 0 3 0 32.................E....XA...PA....V....j.....;
#X connect 3 0 16 0 empty;
#X connect 4 0 5 0 empty;
#X connect 6 0 5 0 32.................aB...3A...vl....d....7I....;
#X connect 6 0 14 0 32.................F....zC...fA....8....v.....;
#X connect 7 0 0 0 empty;
#X connect 8 0 6 0 empty;
#X connect 9 0 10 0 32.................E....3A...PA....d....n.....;
#X connect 9 0 11 0 empty;
#X connect 10 0 9 0 48.................D....7A....A....e....j7++++3++++I++++O9++++y++++;
#X connect 11 0 13 0 empty;
#X connect 11 0 12 0 32.................E....XA...PA....V....j.....;
#X connect 12 0 17 0 empty;
#X connect 13 0 14 0 empty;
#X connect 15 0 9 0 empty;
#X restore 19 39 pd arrays;
#X connect 2 0 0 0 empty;
#X connect 2 0 12 0 empty;
#X connect 2 1 1 0 empty;
#X connect 2 1 13 0 empty;
#X connect 3 0 7 2 empty;
#X connect 4 0 7 3 empty;
#X connect 5 0 2 2 empty;
#X connect 6 0 2 3 empty;
#X connect 7 0 8 0 empty;
#X connect 7 1 8 1 empty;
#X connect 8 0 9 0 empty;
#X connect 8 1 9 1 empty;
#X connect 9 0 2 0 empty;
#X connect 9 1 2 1 empty;
#X connect 10 0 7 0 empty;
#X connect 11 0 7 1 empty;
#X connect 14 0 10 0 empty;
#X connect 14 0 12 0 empty;
#X connect 14 1 11 0 empty;
#X connect 14 1 13 0 empty;
#X restore 79 179 pd phase-accum;
#X connect 0 0 6 0 empty;
#X connect 1 0 6 1 empty;
#X connect 5 0 4 0 empty;
#X connect 6 0 7 0 empty;
#X connect 7 0 8 0 empty;
#X connect 7 1 8 1 empty;
#X connect 7 2 8 3 empty;
#X connect 7 3 8 2 empty;
#X connect 8 0 2 0 empty;
#X connect 8 1 3 0 empty;
#X restore 109 169 pd dna;
