#N canvas 827 239 630 550 12;
#N canvas 0 50 450 250 (subpatch) 1;
#X obj -21 -21 cnv 15 671 591 empty empty empty 20 12 0 14 #000000 #ffffff 0;
#N canvas 0 50 631 551 (subpatch) 1;
#X obj -31 559 bng 25 250 50 0 empty empty ★ 53 -472 0 25 #000000 #000000 #b0b0b0;
#X obj -551 349 colors;
#X msg -551 319 hsl 0 0 \$1;
#X obj -361 29 loadbang;
#X obj -361 138 metro 250;
#X msg -551 379 color #000000 #000000 \$1;
#X obj -312 113 rand.f 250 2000;
#X obj -312 58 mouse;
#X obj -309 86 b;
#X obj -361 339 pick;
#X obj -361 241 nbx 4 18 -1e+37 1e+37 0 0 empty empty empty 0 -8 0 10 #191919 #ffffff #ffffff 0 256;
#X obj -361 276 t b f;
#X msg -361 381 label \$1;
#X msg -361 309 list 🌟 ✦ ★ ⭐ ✨ ✶ ✹;
#X obj -361 199 rand.i 1 7;
#X msg -261 392 label_pos \$1 \$2;
#X obj -261 350 pack 35 15, f 11;
#X obj -261 199 t b b;
#X obj -261 259 rand.i 40 620;
#X obj -211 309 rand.i -530 -30;
#X obj -551 259 lfo;
#X obj -551 289 expr ($f1/127)*100;
#X obj -551 219 rand.f 0.1 4;
#X msg -131 389 label_font Inter \$1;
#X obj -107 340 rand.i 2 25;
#X connect 1 0 5 0 empty;
#X connect 2 0 1 0 empty;
#X connect 3 0 4 0 empty;
#X connect 3 0 22 0 empty;
#X connect 4 0 14 0 empty;
#X connect 4 0 17 0 empty;
#X connect 4 0 24 0 empty;
#X connect 5 0 0 0 empty;
#X connect 6 0 4 1 empty;
#X connect 7 0 8 0 empty;
#X connect 8 0 6 0 empty;
#X connect 8 0 22 0 empty;
#X connect 9 0 12 0 empty;
#X connect 10 0 11 0 empty;
#X connect 11 0 13 0 empty;
#X connect 11 1 9 1 empty;
#X connect 12 0 0 0 empty;
#X connect 13 0 9 0 empty;
#X connect 14 0 10 0 empty;
#X connect 15 0 0 0 empty;
#X connect 16 0 15 0 empty;
#X connect 17 0 18 0 empty;
#X connect 17 1 19 0 empty;
#X connect 18 0 16 0 empty;
#X connect 19 0 16 1 empty;
#X connect 20 0 21 0 empty;
#X connect 21 0 2 0 empty;
#X connect 22 0 20 0 empty;
#X connect 23 0 0 0 empty;
#X connect 24 0 23 0 empty;
#X coords 0 1 100 -1 631 551 1 0 0;
#X restore -1 -1 graph;
#X coords 0 1 100 -1 631 551 1 0 0;
#X restore -1 -1 graph;
