#N canvas 827 239 630 550 12;
#N canvas 0 50 450 250 (subpatch) 1;
#X obj -21 -21 cnv 15 671 591 empty empty empty 20 12 0 14 #000000 #ffffff 0;
#N canvas 0 50 450 250 (subpatch) 1;
#X obj 669 379 bng 25 250 50 0 empty empty 🌟 -202 -235 0 21 #000000 #000000 #3d3d3d;
#X obj 669 159 colors;
#X msg 669 129 hsl 0 0 \$1;
#X obj 649 -21 loadbang;
#X obj 686 68 xmetro;
#N canvas 0 50 450 300 counter 1;
#X obj 151 68 f;
#X obj 151 128 + 1;
#X obj 191 128 - 1;
#X obj 151 98 router;
#X obj 151 198 tgl 25 0 empty empty empty 17 7 0 10 #191919 #ffffff #ffffff 0 1;
#X obj 151 158 select -1 101;
#X obj 151 19 inlet;
#X obj 212 259 outlet;
#X connect 0 0 3 0 empty;
#X connect 1 0 5 0 empty;
#X connect 2 0 5 0 32.................E....j8+++eA....Y++++q.....;
#X connect 3 0 1 0 empty;
#X connect 3 1 2 0 empty;
#X connect 4 0 3 1 48.................G....vD...vA....LA...z2+++OF....88+++iA....g++++;
#X connect 5 0 4 0 empty;
#X connect 5 1 4 0 32.................J....L9+++uB....i++++SA....;
#X connect 5 2 0 1 48.................D....nA....A....Z....33+++ez++++N9+++G8++++j++++;
#X connect 5 2 7 0 empty;
#X connect 6 0 0 0 empty;
#X restore 686 98 pd counter;
#X msg 669 189 color #000000 #000000 \$1;
#X obj 659 529 bng 25 250 50 0 empty empty ✦ -367 -381 0 20 #000000 #000000 #2d2d2d;
#X obj 679 459 bng 25 250 50 0 empty empty ★ -148 -284 0 21 #000000 #000000 #d8d8d8;
#X obj 739 419 bng 25 250 50 0 empty empty ⭐️ -598 -153 0 25 #000000 #000000 #969696;
#X obj 709 449 bng 25 250 50 0 empty empty ✨ -306 -313 0 12 #000000 #000000 #d8d8d8;
#X obj 729 459 bng 25 250 50 0 empty empty ✶ -400 -198 0 13 #000000 #000000 #2d2d2d;
#X obj 689 489 bng 25 250 50 0 empty empty ✹ -148 -284 0 5 #000000 #000000 #3d3d3d;
#X obj 769 419 bng 25 250 50 0 empty empty ⭐️ -416 -328 0 10 #000000 #000000 #000000;
#X obj 691 529 bng 25 250 50 0 empty empty ✦ -526 -200 0 10 #000000 #000000 #969696;
#X obj 779 529 bng 25 250 50 0 empty empty ✨ -746 -164 0 8 #000000 #000000 #969696;
#X obj 761 459 bng 25 250 50 0 empty empty ✶ -154 -340 0 20 #000000 #000000 #686868;
#X obj 910 159 colors;
#X msg 910 129 hsl 0 0 \$1;
#X obj 899 -1 loadbang;
#X obj 927 68 xmetro;
#N canvas 0 50 450 300 counter 1;
#X obj 151 68 f;
#X obj 151 128 + 1;
#X obj 191 128 - 1;
#X obj 151 98 router;
#X obj 151 198 tgl 25 0 empty empty empty 17 7 0 10 #191919 #ffffff #ffffff 0 1;
#X obj 151 158 select -1 101;
#X obj 151 19 inlet;
#X obj 212 259 outlet;
#X connect 0 0 3 0 empty;
#X connect 1 0 5 0 empty;
#X connect 2 0 5 0 32.................E....j8+++eA....Y++++q.....;
#X connect 3 0 1 0 empty;
#X connect 3 1 2 0 empty;
#X connect 4 0 3 1 48.................G....vD...vA....LA...z2+++OF....88+++iA....g++++;
#X connect 5 0 4 0 empty;
#X connect 5 1 4 0 32.................J....L9+++uB....i++++SA....;
#X connect 5 2 0 1 48.................D....nA....A....Z....33+++ez++++N9+++G8++++j++++;
#X connect 5 2 7 0 empty;
#X connect 6 0 0 0 empty;
#X restore 927 98 pd counter;
#X msg 910 189 color #000000 #000000 \$1;
#X obj 1151 159 colors;
#X msg 1151 129 hsl 0 0 \$1;
#X obj 1159 -11 loadbang;
#X obj 1168 68 xmetro;
#N canvas 0 50 450 300 counter 1;
#X obj 151 68 f;
#X obj 151 128 + 1;
#X obj 191 128 - 1;
#X obj 151 98 router;
#X obj 151 198 tgl 25 0 empty empty empty 17 7 0 10 #191919 #ffffff #ffffff 0 1;
#X obj 151 158 select -1 101;
#X obj 151 19 inlet;
#X obj 212 259 outlet;
#X connect 0 0 3 0 empty;
#X connect 1 0 5 0 empty;
#X connect 2 0 5 0 32.................E....j8+++eA....Y++++q.....;
#X connect 3 0 1 0 empty;
#X connect 3 1 2 0 empty;
#X connect 4 0 3 1 48.................G....vD...vA....LA...z2+++OF....88+++iA....g++++;
#X connect 5 0 4 0 empty;
#X connect 5 1 4 0 32.................J....L9+++uB....i++++SA....;
#X connect 5 2 0 1 48.................D....nA....A....Z....33+++ez++++N9+++G8++++j++++;
#X connect 5 2 7 0 empty;
#X connect 6 0 0 0 empty;
#X restore 1168 98 pd counter;
#X msg 1151 189 color #000000 #000000 \$1;
#X obj 809 390 colors;
#X msg 809 360 hsl 0 0 \$1;
#X obj 779 219 loadbang;
#X obj 826 299 xmetro;
#N canvas 0 50 450 300 counter 1;
#X obj 151 68 f;
#X obj 151 128 + 1;
#X obj 191 128 - 1;
#X obj 151 98 router;
#X obj 151 198 tgl 25 0 empty empty empty 17 7 0 10 #191919 #ffffff #ffffff 0 1;
#X obj 151 158 select -1 101;
#X obj 151 19 inlet;
#X obj 212 259 outlet;
#X connect 0 0 3 0 empty;
#X connect 1 0 5 0 empty;
#X connect 2 0 5 0 32.................E....j8+++eA....Y++++q.....;
#X connect 3 0 1 0 empty;
#X connect 3 1 2 0 empty;
#X connect 4 0 3 1 48.................G....vD...vA....LA...z2+++OF....88+++iA....g++++;
#X connect 5 0 4 0 empty;
#X connect 5 1 4 0 32.................J....L9+++uB....i++++SA....;
#X connect 5 2 0 1 48.................D....nA....A....Z....33+++ez++++N9+++G8++++j++++;
#X connect 5 2 7 0 empty;
#X connect 6 0 0 0 empty;
#X restore 826 329 pd counter;
#X msg 809 420 color #000000 #000000 \$1;
#X obj 1050 390 colors;
#X msg 1050 360 hsl 0 0 \$1;
#X obj 1049 219 loadbang;
#X obj 1067 299 xmetro;
#N canvas 0 50 450 300 counter 1;
#X obj 151 68 f;
#X obj 151 128 + 1;
#X obj 191 128 - 1;
#X obj 151 98 router;
#X obj 151 198 tgl 25 0 empty empty empty 17 7 0 10 #191919 #ffffff #ffffff 0 1;
#X obj 151 158 select -1 101;
#X obj 151 19 inlet;
#X obj 212 259 outlet;
#X connect 0 0 3 0 empty;
#X connect 1 0 5 0 empty;
#X connect 2 0 5 0 32.................E....j8+++eA....Y++++q.....;
#X connect 3 0 1 0 empty;
#X connect 3 1 2 0 empty;
#X connect 4 0 3 1 48.................G....vD...vA....LA...z2+++OF....88+++iA....g++++;
#X connect 5 0 4 0 empty;
#X connect 5 1 4 0 32.................J....L9+++uB....i++++SA....;
#X connect 5 2 0 1 48.................D....nA....A....Z....33+++ez++++N9+++G8++++j++++;
#X connect 5 2 7 0 empty;
#X connect 6 0 0 0 empty;
#X restore 1067 329 pd counter;
#X msg 1050 420 color #000000 #000000 \$1;
#X obj 1291 390 colors;
#X msg 1291 360 hsl 0 0 \$1;
#X obj 1249 219 loadbang;
#X obj 1308 299 xmetro;
#X obj 1331 260 rand.f 250 2000;
#N canvas 0 50 450 300 counter 1;
#X obj 151 68 f;
#X obj 151 128 + 1;
#X obj 191 128 - 1;
#X obj 151 98 router;
#X obj 151 198 tgl 25 0 empty empty empty 17 7 0 10 #191919 #ffffff #ffffff 0 1;
#X obj 151 158 select -1 101;
#X obj 151 19 inlet;
#X obj 212 259 outlet;
#X connect 0 0 3 0 empty;
#X connect 1 0 5 0 empty;
#X connect 2 0 5 0 32.................E....j8+++eA....Y++++q.....;
#X connect 3 0 1 0 empty;
#X connect 3 1 2 0 empty;
#X connect 4 0 3 1 48.................G....vD...vA....LA...z2+++OF....88+++iA....g++++;
#X connect 5 0 4 0 empty;
#X connect 5 1 4 0 32.................J....L9+++uB....i++++SA....;
#X connect 5 2 0 1 48.................D....nA....A....Z....33+++ez++++N9+++G8++++j++++;
#X connect 5 2 7 0 empty;
#X connect 6 0 0 0 empty;
#X restore 1308 329 pd counter;
#X msg 1291 420 color #000000 #000000 \$1;
#X obj 639 970 bng 25 250 50 0 empty empty 🌟 -357 -597 0 11 #000000 #000000 #f4f4f4;
#X obj 639 750 colors;
#X msg 639 720 hsl 0 0 \$1;
#X obj 629 579 loadbang;
#X obj 656 659 xmetro;
#X obj 679 620 rand.f 250 2000;
#N canvas 0 50 450 300 counter 1;
#X obj 151 68 f;
#X obj 151 128 + 1;
#X obj 191 128 - 1;
#X obj 151 98 router;
#X obj 151 198 tgl 25 0 empty empty empty 17 7 0 10 #191919 #ffffff #ffffff 0 1;
#X obj 151 158 select -1 101;
#X obj 151 19 inlet;
#X obj 212 259 outlet;
#X connect 0 0 3 0 empty;
#X connect 1 0 5 0 empty;
#X connect 2 0 5 0 32.................E....j8+++eA....Y++++q.....;
#X connect 3 0 1 0 empty;
#X connect 3 1 2 0 empty;
#X connect 4 0 3 1 48.................G....vD...vA....LA...z2+++OF....88+++iA....g++++;
#X connect 5 0 4 0 empty;
#X connect 5 1 4 0 32.................J....L9+++uB....i++++SA....;
#X connect 5 2 0 1 48.................D....nA....A....Z....33+++ez++++N9+++G8++++j++++;
#X connect 5 2 7 0 empty;
#X connect 6 0 0 0 empty;
#X restore 656 689 pd counter;
#X msg 639 780 color #000000 #000000 \$1;
#X obj 629 1120 bng 25 250 50 0 empty empty ✦ -436 -988 0 4 #000000 #000000 #383838;
#X obj 649 1050 bng 25 250 50 0 empty empty ★ -358 -862 0 13 #000000 #000000 #8e8e8e;
#X obj 709 1010 bng 25 250 50 0 empty empty ⭐️ -643 -587 0 18 #000000 #000000 #5b5b5b;
#X obj 679 1040 bng 25 250 50 0 empty empty ✨ -488 -942 0 9 #000000 #000000 #8e8e8e;
#X obj 699 1050 bng 25 250 50 0 empty empty ✶ -616 -837 0 18 #000000 #000000 #383838;
#X obj 659 1080 bng 25 250 50 0 empty empty ✹ -529 -899 0 5 #000000 #000000 #f4f4f4;
#X obj 739 1010 bng 25 250 50 0 empty empty ⭐️ -445 -649 0 13 #000000 #000000 #c1c1c1;
#X obj 661 1120 bng 25 250 50 0 empty empty ✦ -359 -979 0 4 #000000 #000000 #5b5b5b;
#X obj 749 1120 bng 25 250 50 0 empty empty ✨ -648 -1083 0 6 #000000 #000000 #5b5b5b;
#X obj 731 1050 bng 25 250 50 0 empty empty ✶ -215 -963 0 13 #000000 #000000 #cccccc;
#X obj 880 750 colors;
#X msg 880 720 hsl 0 0 \$1;
#X obj 859 579 loadbang;
#X obj 897 659 xmetro;
#X obj 920 620 rand.f 250 2000;
#N canvas 0 50 450 300 counter 1;
#X obj 151 68 f;
#X obj 151 128 + 1;
#X obj 191 128 - 1;
#X obj 151 98 router;
#X obj 151 198 tgl 25 0 empty empty empty 17 7 0 10 #191919 #ffffff #ffffff 0 1;
#X obj 151 158 select -1 101;
#X obj 151 19 inlet;
#X obj 212 259 outlet;
#X connect 0 0 3 0 empty;
#X connect 1 0 5 0 empty;
#X connect 2 0 5 0 32.................E....j8+++eA....Y++++q.....;
#X connect 3 0 1 0 empty;
#X connect 3 1 2 0 empty;
#X connect 4 0 3 1 48.................G....vD...vA....LA...z2+++OF....88+++iA....g++++;
#X connect 5 0 4 0 empty;
#X connect 5 1 4 0 32.................J....L9+++uB....i++++SA....;
#X connect 5 2 0 1 48.................D....nA....A....Z....33+++ez++++N9+++G8++++j++++;
#X connect 5 2 7 0 empty;
#X connect 6 0 0 0 empty;
#X restore 897 689 pd counter;
#X msg 880 780 color #000000 #000000 \$1;
#X obj 1121 750 colors;
#X msg 1121 720 hsl 0 0 \$1;
#X obj 1129 579 loadbang;
#X obj 1138 659 xmetro;
#X obj 1161 620 rand.f 250 2000;
#N canvas 0 50 450 300 counter 1;
#X obj 151 68 f;
#X obj 151 128 + 1;
#X obj 191 128 - 1;
#X obj 151 98 router;
#X obj 151 198 tgl 25 0 empty empty empty 17 7 0 10 #191919 #ffffff #ffffff 0 1;
#X obj 151 158 select -1 101;
#X obj 151 19 inlet;
#X obj 212 259 outlet;
#X connect 0 0 3 0 empty;
#X connect 1 0 5 0 empty;
#X connect 2 0 5 0 32.................E....j8+++eA....Y++++q.....;
#X connect 3 0 1 0 empty;
#X connect 3 1 2 0 empty;
#X connect 4 0 3 1 48.................G....vD...vA....LA...z2+++OF....88+++iA....g++++;
#X connect 5 0 4 0 empty;
#X connect 5 1 4 0 32.................J....L9+++uB....i++++SA....;
#X connect 5 2 0 1 48.................D....nA....A....Z....33+++ez++++N9+++G8++++j++++;
#X connect 5 2 7 0 empty;
#X connect 6 0 0 0 empty;
#X restore 1138 689 pd counter;
#X msg 1121 780 color #000000 #000000 \$1;
#X obj 779 981 colors;
#X msg 779 951 hsl 0 0 \$1;
#X obj 749 809 loadbang;
#X obj 796 890 xmetro;
#X obj 819 851 rand.f 250 2000;
#N canvas 0 50 450 300 counter 1;
#X obj 151 68 f;
#X obj 151 128 + 1;
#X obj 191 128 - 1;
#X obj 151 98 router;
#X obj 151 198 tgl 25 0 empty empty empty 17 7 0 10 #191919 #ffffff #ffffff 0 1;
#X obj 151 158 select -1 101;
#X obj 151 19 inlet;
#X obj 212 259 outlet;
#X connect 0 0 3 0 empty;
#X connect 1 0 5 0 empty;
#X connect 2 0 5 0 32.................E....j8+++eA....Y++++q.....;
#X connect 3 0 1 0 empty;
#X connect 3 1 2 0 empty;
#X connect 4 0 3 1 48.................G....vD...vA....LA...z2+++OF....88+++iA....g++++;
#X connect 5 0 4 0 empty;
#X connect 5 1 4 0 32.................J....L9+++uB....i++++SA....;
#X connect 5 2 0 1 48.................D....nA....A....Z....33+++ez++++N9+++G8++++j++++;
#X connect 5 2 7 0 empty;
#X connect 6 0 0 0 empty;
#X restore 796 920 pd counter;
#X msg 779 1011 color #000000 #000000 \$1;
#X obj 1020 981 colors;
#X msg 1020 951 hsl 0 0 \$1;
#X obj 999 819 loadbang;
#X obj 1037 890 xmetro;
#X obj 1060 851 rand.f 250 2000;
#N canvas 0 50 450 300 counter 1;
#X obj 151 68 f;
#X obj 151 128 + 1;
#X obj 191 128 - 1;
#X obj 151 98 router;
#X obj 151 198 tgl 25 0 empty empty empty 17 7 0 10 #191919 #ffffff #ffffff 0 1;
#X obj 151 158 select -1 101;
#X obj 151 19 inlet;
#X obj 212 259 outlet;
#X connect 0 0 3 0 empty;
#X connect 1 0 5 0 empty;
#X connect 2 0 5 0 32.................E....j8+++eA....Y++++q.....;
#X connect 3 0 1 0 empty;
#X connect 3 1 2 0 empty;
#X connect 4 0 3 1 48.................G....vD...vA....LA...z2+++OF....88+++iA....g++++;
#X connect 5 0 4 0 empty;
#X connect 5 1 4 0 32.................J....L9+++uB....i++++SA....;
#X connect 5 2 0 1 48.................D....nA....A....Z....33+++ez++++N9+++G8++++j++++;
#X connect 5 2 7 0 empty;
#X connect 6 0 0 0 empty;
#X restore 1037 920 pd counter;
#X msg 1020 1011 color #000000 #000000 \$1;
#X obj 1261 981 colors;
#X msg 1261 951 hsl 0 0 \$1;
#X obj 1249 809 loadbang;
#X obj 1278 890 xmetro;
#X obj 1301 851 rand.f 250 2000;
#N canvas 0 50 450 300 counter 1;
#X obj 151 68 f;
#X obj 151 128 + 1;
#X obj 191 128 - 1;
#X obj 151 98 router;
#X obj 151 198 tgl 25 0 empty empty empty 17 7 0 10 #191919 #ffffff #ffffff 0 1;
#X obj 151 158 select -1 101;
#X obj 151 19 inlet;
#X obj 212 259 outlet;
#X connect 0 0 3 0 empty;
#X connect 1 0 5 0 empty;
#X connect 2 0 5 0 32.................E....j8+++eA....Y++++q.....;
#X connect 3 0 1 0 empty;
#X connect 3 1 2 0 empty;
#X connect 4 0 3 1 48.................G....vD...vA....LA...z2+++OF....88+++iA....g++++;
#X connect 5 0 4 0 empty;
#X connect 5 1 4 0 32.................J....L9+++uB....i++++SA....;
#X connect 5 2 0 1 48.................D....nA....A....Z....33+++ez++++N9+++G8++++j++++;
#X connect 5 2 7 0 empty;
#X connect 6 0 0 0 empty;
#X restore 1278 920 pd counter;
#X msg 1261 1011 color #000000 #000000 \$1;
#X obj 1191 29 rand.f 250 2000;
#X obj 950 29 rand.f 250 2000;
#X obj 709 29 rand.f 250 2000;
#X obj 849 260 rand.f 250 2000;
#X obj 1090 260 rand.f 250 2000;
#X obj 1339 199 mouse;
#X obj 1349 229 b;
#X obj 1219 549 mouse;
#X obj 1229 579 b;
#X obj 1159 219 mouse;
#X obj 1129 229 b;
#X obj 941 224 mouse;
#X obj 951 254 b;
#X obj 1278 -14 mouse;
#X obj 1288 16 b;
#X obj 972 -28 mouse;
#X obj 982 2 b;
#X obj 740 -33 mouse;
#X obj 750 -3 b;
#X obj 961 548 mouse;
#X obj 971 578 b;
#X obj 712 560 mouse;
#X obj 722 590 b;
#X obj 829 786 mouse;
#X obj 839 816 b;
#X obj 1064 777 mouse;
#X obj 1074 807 b;
#X obj 1339 782 mouse;
#X obj 1349 812 b;
#X connect 1 0 6 0 empty;
#X connect 2 0 1 0 empty;
#X connect 3 0 4 0 empty;
#X connect 4 0 5 0 empty;
#X connect 5 0 2 0 empty;
#X connect 6 0 0 0 empty;
#X connect 6 0 12 0 empty;
#X connect 17 0 22 0 empty;
#X connect 18 0 17 0 empty;
#X connect 19 0 20 0 empty;
#X connect 20 0 21 0 empty;
#X connect 21 0 18 0 empty;
#X connect 22 0 9 0 empty;
#X connect 22 0 14 0 empty;
#X connect 22 0 15 0 empty;
#X connect 23 0 28 0 empty;
#X connect 24 0 23 0 empty;
#X connect 25 0 26 0 empty;
#X connect 26 0 27 0 empty;
#X connect 27 0 24 0 empty;
#X connect 28 0 13 0 empty;
#X connect 29 0 34 0 empty;
#X connect 30 0 29 0 empty;
#X connect 31 0 32 0 empty;
#X connect 32 0 33 0 empty;
#X connect 33 0 30 0 empty;
#X connect 34 0 16 0 empty;
#X connect 35 0 40 0 empty;
#X connect 36 0 35 0 empty;
#X connect 37 0 38 0 empty;
#X connect 38 0 39 0 empty;
#X connect 39 0 36 0 empty;
#X connect 40 0 10 0 empty;
#X connect 40 0 8 0 empty;
#X connect 41 0 47 0 empty;
#X connect 42 0 41 0 empty;
#X connect 43 0 44 0 empty;
#X connect 44 0 46 0 empty;
#X connect 45 0 44 1 empty;
#X connect 46 0 42 0 empty;
#X connect 47 0 11 0 empty;
#X connect 47 0 7 0 empty;
#X connect 49 0 55 0 empty;
#X connect 50 0 49 0 empty;
#X connect 51 0 52 0 empty;
#X connect 52 0 54 0 empty;
#X connect 53 0 52 1 empty;
#X connect 54 0 50 0 empty;
#X connect 55 0 48 0 empty;
#X connect 55 0 61 0 empty;
#X connect 66 0 72 0 empty;
#X connect 67 0 66 0 empty;
#X connect 68 0 69 0 empty;
#X connect 69 0 71 0 empty;
#X connect 70 0 69 1 empty;
#X connect 71 0 67 0 empty;
#X connect 72 0 58 0 empty;
#X connect 72 0 63 0 empty;
#X connect 72 0 64 0 empty;
#X connect 73 0 79 0 empty;
#X connect 74 0 73 0 empty;
#X connect 75 0 76 0 empty;
#X connect 76 0 78 0 empty;
#X connect 77 0 76 1 empty;
#X connect 78 0 74 0 empty;
#X connect 79 0 62 0 empty;
#X connect 80 0 86 0 empty;
#X connect 81 0 80 0 empty;
#X connect 82 0 83 0 empty;
#X connect 83 0 85 0 empty;
#X connect 84 0 83 1 empty;
#X connect 85 0 81 0 empty;
#X connect 86 0 65 0 empty;
#X connect 87 0 93 0 empty;
#X connect 88 0 87 0 empty;
#X connect 89 0 90 0 empty;
#X connect 90 0 92 0 empty;
#X connect 91 0 90 1 empty;
#X connect 92 0 88 0 empty;
#X connect 93 0 59 0 empty;
#X connect 93 0 57 0 empty;
#X connect 94 0 100 0 empty;
#X connect 95 0 94 0 empty;
#X connect 96 0 97 0 empty;
#X connect 97 0 99 0 empty;
#X connect 98 0 97 1 empty;
#X connect 99 0 95 0 empty;
#X connect 100 0 60 0 empty;
#X connect 100 0 56 0 empty;
#X connect 101 0 26 1 empty;
#X connect 102 0 20 1 empty;
#X connect 103 0 4 1 empty;
#X connect 104 0 32 1 empty;
#X connect 105 0 38 1 empty;
#X connect 106 0 107 0 empty;
#X connect 107 0 45 0 empty;
#X connect 108 0 109 0 empty;
#X connect 109 0 77 0 empty;
#X connect 110 0 111 0 empty;
#X connect 111 0 105 0 empty;
#X connect 112 0 113 0 empty;
#X connect 113 0 104 0 empty;
#X connect 114 0 115 0 empty;
#X connect 115 0 101 0 empty;
#X connect 116 0 117 0 empty;
#X connect 117 0 102 0 empty;
#X connect 118 0 119 0 empty;
#X connect 119 0 103 0 empty;
#X connect 120 0 121 0 empty;
#X connect 121 0 70 0 empty;
#X connect 122 0 123 0 empty;
#X connect 123 0 53 0 empty;
#X connect 124 0 125 0 empty;
#X connect 125 0 84 0 empty;
#X connect 126 0 127 0 empty;
#X connect 127 0 91 0 empty;
#X connect 128 0 129 0 empty;
#X connect 129 0 98 0 empty;
#X coords 0 1 100 -1 631 551 1 0 0;
#X restore -1 -1 graph;
#X coords 0 1 100 -1 631 551 1 0 0;
#X restore -1 -1 graph;
#X text 237 582 🌟✦★⭐🌟✨✶✹;
