#N canvas 827 239 630 550 12;
#N canvas 0 50 450 250 (subpatch) 1;
#X obj -21 -21 cnv 15 671 591 empty empty empty 20 12 0 14 #000000 #ffffff 0;
#N canvas 0 50 450 250 (subpatch) 1;
#X obj 149 299 bng 25 250 50 0 empty empty 🌟 -148 -284 0 21 #818181 #818181 #818181;
#X obj 149 239 colors;
#X msg 149 209 hsl 0 0 \$1;
#X msg 149 269 color \$1 \$1 \$1;
#X obj 149 119 lfo;
#X obj 149 149 / 127;
#X obj 149 179 * 100;
#X obj 149 89 rand.f 0 1;
#X obj 149 29 loadbang;
#X connect 1 0 3 0 empty;
#X connect 2 0 1 0 empty;
#X connect 3 0 0 0 empty;
#X connect 4 0 5 0 empty;
#X connect 5 0 6 0 empty;
#X connect 6 0 2 0 empty;
#X connect 7 0 4 0 empty;
#X connect 8 0 7 0 empty;
#X coords 0 1 100 -1 31 31 1 0 0;
#X restore 139 89 graph;
#X coords 0 1 100 -1 631 551 1 0 0;
#X restore -1 -1 graph;
#X text 237 582 🌟✦★⭐🌟✨✶✹;
