#N canvas 827 239 527 327 12;
#N canvas 0 50 340 340 dna 1;
#X obj 59 29 inlet~;
#X obj 129 29 inlet~;
#X obj 59 269 outlet~;
#X obj 139 269 outlet~;
#X obj 249 69 switch~;
#X obj 249 29 inlet;
#N canvas 0 50 450 300 delay-write 0;
#X obj 9 9 inlet~;
#X obj 199 9 inlet~;
#X obj 9 269 outlet~;
#X text 69 268 for order of execution;
#X obj 9 149 del~ in del-dna-real_\$0 10000;
#X obj 199 149 del~ in del-dna-imag_\$0 10000;
#X connect 0 0 4 0 empty;
#X connect 1 0 5 0 empty;
#X restore 59 99 pd delay-write;
#N canvas 0 50 650 540 delay-read 0;
#X text 69 8 for order of execution;
#X obj 9 9 inlet~;
#X obj 49 509 outlet~;
#X obj 279 509 outlet~;
#X obj 109 509 outlet~;
#X obj 339 509 outlet~;
#X obj 49 379 +~;
#X obj 49 449 del~ out del-dna-real_\$0;
#X obj 279 439 del~ out del-dna-real_\$0;
#X obj 109 479 del~ out del-dna-imag_\$0;
#X obj 339 469 del~ out del-dna-imag_\$0;
#X obj 319 129 tabreceive~ index;
#X obj 319 159 tabread~ insight-arr;
#X obj 109 39 r insight;
#X obj 279 399 wrap2~ 10000;
#X obj 49 409 wrap2~ 10000;
#X obj 49 339 line~;
#X msg 49 312 \$1 \, \$2 \$3;
#X obj 49 72 bang~;
#X obj 98 169 +;
#X obj 49 183 f;
#X obj 269 39 blocksize~ -ms;
#X obj 359 219 s2f~ 10;
#X obj 299 99 r overlap;
#X obj 259 296 *;
#X obj 259 326 /;
#X obj 299 296 * 2;
#X obj 109 139 /;
#N canvas 0 50 450 300 pack 0;
#X obj 59 29 inlet;
#X obj 169 19 inlet;
#X obj 259 149 /;
#X obj 372 40 r overlap;
#X obj 169 149 /;
#X obj 59 149 /;
#X obj 69 269 outlet;
#X obj 249 19 blocksize~ -ms;
#X obj 111 211 pack f f f;
#X connect 0 0 5 0 empty;
#X connect 1 0 4 0 empty;
#X connect 2 0 8 2 empty;
#X connect 3 0 2 1 empty;
#X connect 3 0 4 1 empty;
#X connect 3 0 5 1 empty;
#X connect 4 0 8 1 empty;
#X connect 5 0 8 0 empty;
#X connect 7 0 2 0 empty;
#X connect 8 0 6 0 empty;
#X restore 49 286 pd pack;
#X obj 84 256 expr ($f1 + ((1 - $f2) * $f3));
#X obj 98 199 wrap2 10000;
#X obj 109 99 expr (1 - $f1/100) * $f2;
#X obj 319 189 expr~ $v1*4 - 2;
#X obj 109 69 expr $f1*200 - 100;
#X connect 6 0 15 0 empty;
#X connect 7 0 2 0 empty;
#X connect 8 0 3 0 empty;
#X connect 9 0 4 0 empty;
#X connect 10 0 5 0 empty;
#X connect 11 0 12 0 empty;
#X connect 12 0 32 0 empty;
#X connect 13 0 33 0 empty;
#X connect 14 0 8 0 empty;
#X connect 14 0 10 0 32.................K....vC...vB....7....HC....;
#X connect 15 0 7 0 empty;
#X connect 15 0 9 0 32.................J....vC...fB....7....HC....;
#X connect 16 0 6 0 empty;
#X connect 16 0 14 0 32.................G....XN...vA....lC...fB....;
#X connect 17 0 16 0 empty;
#X connect 18 0 20 0 empty;
#X connect 19 0 30 0 empty;
#X connect 20 0 28 0 empty;
#X connect 20 0 29 0 32.................a....LB...vF....i....TC....;
#X connect 20 0 19 0 48.................N....jA...fC....Y....b8+++eL....W++++GC...v2++++;
#X connect 21 0 24 1 empty;
#X connect 21 0 31 1 32.................T....n8+++OE....Z++++iB....;
#X connect 21 0 29 2 32.................iA...v8++++X....b++++WL....;
#X connect 22 0 24 0 32.................c....T7+++eG....E++++mC....;
#X connect 22 0 29 1 32.................F.....1+++uA....f8+++GA....;
#X connect 23 0 26 0 empty;
#X connect 23 0 27 1 32.................E.....3+++eA.....9+++q.....;
#X connect 24 0 25 0 empty;
#X connect 25 0 6 1 32.................a....ny++++F....57+++GB....;
#X connect 26 0 25 1 32.................E....n8+++eA....Z++++q.....;
#X connect 27 0 19 1 empty;
#X connect 28 0 17 0 empty;
#X connect 29 0 28 1 empty;
#X connect 30 0 20 1 48.................D....39+++OA....t++++e8++++1++++W++++u8+++e2++++;
#X connect 31 0 27 0 empty;
#X connect 32 0 22 0 empty;
#X connect 33 0 31 0 empty;
#X restore 59 149 pd delay-read;
#N canvas 377 157 654 496 phase-accum 0;
#X obj 169 419 outlet~;
#X obj 342 419 outlet~;
#X obj 169 309 expr~ ($v1 * $v3) - ($v2 * $v4) \; ($v2 * $v3) + ($v1 * $v4);
#X obj 309 79 inlet~;
#X obj 379 79 inlet~;
#X obj 439 79 inlet~;
#X obj 499 79 inlet~;
#X obj 169 179 expr~ ($v1 * $v3) + ($v2 * $v4) \; ($v2 * $v3) - ($v1 * $v4), f 33;
#N canvas 228 78 542 340 phase_lock 0;
#X obj 385 133 lrshift~ 1;
#X obj 300 133 lrshift~ -1;
#X obj 285 225 +~;
#X obj 285 255 outlet~;
#X obj 283 47 inlet~;
#X obj 300 189 +~;
#X obj 157 137 lrshift~ 1;
#X obj 72 137 lrshift~ -1;
#X obj 57 229 +~;
#X obj 57 259 outlet~;
#X obj 55 51 inlet~;
#X obj 72 193 +~;
#X connect 0 0 5 1 empty;
#X connect 1 0 5 0 empty;
#X connect 2 0 3 0 empty;
#X connect 4 0 0 0 empty;
#X connect 4 0 1 0 empty;
#X connect 4 0 2 0 empty;
#X connect 5 0 2 1 empty;
#X connect 6 0 11 1 empty;
#X connect 7 0 11 0 empty;
#X connect 8 0 9 0 empty;
#X connect 10 0 6 0 empty;
#X connect 10 0 7 0 empty;
#X connect 10 0 8 0 empty;
#X connect 11 0 8 1 empty;
#X restore 159 229 pd phase_lock;
#X obj 499 269 array define dna-real_\$0;
#X obj 479 299 array define dna-imag_\$0;
#X obj 59 99 tabreceive~ dna-real_\$0;
#X obj 149 129 tabreceive~ dna-imag_\$0;
#X obj 189 369 tabsend~ dna-real_\$0;
#X obj 379 369 tabsend~ dna-imag_\$0;
#X obj 479 199 blocksize~;
#X msg 479 229 resize \$1;
#N canvas 362 104 559 245 norm 0;
#X obj 352 180 outlet~;
#X obj 57 187 outlet~;
#X obj 317 31 inlet~;
#X obj 68 29 inlet~;
#X obj 57 127 expr~ $v1 / sqrt(pow ($v1 \, 2) + pow($v2 \, 2)) \; $v2 / sqrt(pow ($v1 \, 2) + pow($v2 \, 2)) \;;
#X obj 68 71 expr~ if($v1 == 0 && $v2 == 0 \, 1 \, $v1) \; $v2;
#X connect 2 0 5 1 empty;
#X connect 3 0 5 0 empty;
#X connect 4 0 1 0 empty;
#X connect 4 1 0 0 empty;
#X connect 5 0 4 0 empty;
#X connect 5 1 4 1 empty;
#X restore 159 269 pd norm;
#X connect 2 0 0 0 empty;
#X connect 2 0 13 0 empty;
#X connect 2 1 1 0 empty;
#X connect 2 1 14 0 empty;
#X connect 3 0 7 2 empty;
#X connect 4 0 7 3 empty;
#X connect 5 0 2 2 empty;
#X connect 6 0 2 3 empty;
#X connect 7 0 8 0 empty;
#X connect 7 1 8 1 empty;
#X connect 8 0 17 0 empty;
#X connect 8 1 17 1 empty;
#X connect 11 0 7 0 empty;
#X connect 12 0 7 1 empty;
#X connect 15 0 16 0 empty;
#X connect 16 0 10 0 empty;
#X connect 16 0 9 0 empty;
#X connect 17 0 2 0 empty;
#X connect 17 1 2 1 empty;
#X restore 59 199 pd phase-accum;
#X connect 0 0 6 0 empty;
#X connect 1 0 6 1 empty;
#X connect 5 0 4 0 empty;
#X connect 6 0 7 0 empty;
#X connect 7 0 8 0 empty;
#X connect 7 1 8 1 empty;
#X connect 7 2 8 2 empty;
#X connect 7 3 8 3 empty;
#X connect 8 0 2 0 empty;
#X connect 8 1 3 0 empty;
#X restore 158 140 pd dna;
