#N canvas 827 239 527 327 12;
#N canvas 0 50 940 370 gender 1;
#X obj 9 9 inlet~;
#X obj 812 9 inlet~;
#X obj 9 339 outlet~;
#X obj 860 339 outlet~;
#X obj 879 49 switch~;
#X obj 879 9 inlet;
#N canvas 0 50 525 342 sun-lipstick 1;
#X obj 9 9 inlet~;
#X obj 219 9 inlet~;
#X obj 9 309 outlet~;
#X obj 219 309 outlet~;
#X obj 163 170 blocksize~ -ms;
#X obj 9 269 comb.rev~ 22230 0 1 0;
#X obj 219 269 comb.rev~ 22230 0 1 0;
#X obj 277 156 r k_genderfuck_\$0;
#X obj 96 146 r k_gender-amnt_\$0;
#X obj 29 199 expr~ rint($v1*$f2) * $f3;
#X obj 263 215 *~ 0;
#X obj 263 126 tabread~ genderfuck_\$0;
#X obj 263 86 tabreceive~ index_\$0;
#X obj 29 123 tabread~ gender_\$0;
#X obj 379 9 inlet;
#X obj 379 39 switch~;
#X obj 369 229 r clear_delay_line_\$0;
#X obj 277 185 * 2;
#X connect 0 0 5 0 empty;
#X connect 1 0 6 0 empty;
#X connect 4 0 9 2 empty;
#X connect 5 0 2 0 empty;
#X connect 6 0 3 0 empty;
#X connect 7 0 17 0 empty;
#X connect 8 0 9 1 empty;
#X connect 9 0 6 1 32.................Q....zM...PD....cC...HC....;
#X connect 9 0 5 1 32.................n....r.....J....K....HC....;
#X connect 10 0 5 4 32.................Q....72+++eD....+8+++KB....;
#X connect 10 0 6 4 32.................Q.....E...PD....PA...HB....;
#X connect 11 0 10 0 empty;
#X connect 12 0 11 0 empty;
#X connect 12 0 13 0 32.................I....bw+++eB....W7+++GA....;
#X connect 13 0 9 0 empty;
#X connect 14 0 15 0 empty;
#X connect 16 0 5 0 32.................N....7i+++uC....+3+++SA....;
#X connect 16 0 6 0 32.................N....Dw+++uC....Q7+++SA....;
#X connect 17 0 10 1 empty;
#X restore 9 169 pd sun-lipstick;
#N canvas 0 50 756 262 mode 1;
#X obj 139 9 r gender-mode_\$0;
#X obj 349 9 r genderfuck-mode_\$0;
#X obj 139 49 == 0;
#X obj 189 49 == 1;
#X obj 239 49 == 2;
#X obj 289 49 == 3;
#X obj 349 49 == 0;
#X obj 399 49 == 1;
#X obj 449 49 == 2;
#X obj 499 49 == 3;
#X obj 2 229 outlet;
#X obj 49 229 outlet;
#X obj 96 229 outlet;
#X obj 143 229 outlet;
#X obj 190 229 outlet;
#X obj 237 229 outlet;
#X obj 284 229 outlet;
#X obj 331 229 outlet;
#X obj 378 229 outlet;
#X obj 425 229 outlet;
#X obj 472 229 outlet;
#X obj 519 229 outlet;
#X obj 566 229 outlet;
#X obj 613 229 outlet;
#X obj 660 229 outlet;
#X obj 707 229 outlet;
#N canvas 0 50 450 300 h& 0;
#X obj 159 179 &&;
#X obj 189 99 t b f;
#X obj 159 259 outlet;
#X obj 109 9 inlet;
#X obj 189 9 inlet;
#X connect 0 0 2 0 empty;
#X connect 1 0 0 0 empty;
#X connect 1 1 0 1 empty;
#X connect 3 0 0 0 empty;
#X connect 4 0 1 0 empty;
#X restore 2 189 pd h&;
#N canvas 0 50 450 300 h& 0;
#X obj 159 179 &&;
#X obj 189 99 t b f;
#X obj 159 259 outlet;
#X obj 109 9 inlet;
#X obj 189 9 inlet;
#X connect 0 0 2 0 empty;
#X connect 1 0 0 0 empty;
#X connect 1 1 0 1 empty;
#X connect 3 0 0 0 empty;
#X connect 4 0 1 0 empty;
#X restore 49 189 pd h&;
#N canvas 0 50 450 300 h& 0;
#X obj 159 179 &&;
#X obj 189 99 t b f;
#X obj 159 259 outlet;
#X obj 109 9 inlet;
#X obj 189 9 inlet;
#X connect 0 0 2 0 empty;
#X connect 1 0 0 0 empty;
#X connect 1 1 0 1 empty;
#X connect 3 0 0 0 empty;
#X connect 4 0 1 0 empty;
#X restore 95 189 pd h&;
#N canvas 0 50 450 300 h& 0;
#X obj 159 179 &&;
#X obj 189 99 t b f;
#X obj 159 259 outlet;
#X obj 109 9 inlet;
#X obj 189 9 inlet;
#X connect 0 0 2 0 empty;
#X connect 1 0 0 0 empty;
#X connect 1 1 0 1 empty;
#X connect 3 0 0 0 empty;
#X connect 4 0 1 0 empty;
#X restore 142 189 pd h&;
#N canvas 0 50 450 300 h& 0;
#X obj 159 179 &&;
#X obj 189 99 t b f;
#X obj 159 259 outlet;
#X obj 109 9 inlet;
#X obj 189 9 inlet;
#X connect 0 0 2 0 empty;
#X connect 1 0 0 0 empty;
#X connect 1 1 0 1 empty;
#X connect 3 0 0 0 empty;
#X connect 4 0 1 0 empty;
#X restore 188 189 pd h&;
#N canvas 0 50 450 300 h& 0;
#X obj 159 179 &&;
#X obj 189 99 t b f;
#X obj 159 259 outlet;
#X obj 109 9 inlet;
#X obj 189 9 inlet;
#X connect 0 0 2 0 empty;
#X connect 1 0 0 0 empty;
#X connect 1 1 0 1 empty;
#X connect 3 0 0 0 empty;
#X connect 4 0 1 0 empty;
#X restore 235 189 pd h&;
#N canvas 0 50 450 300 h& 0;
#X obj 159 179 &&;
#X obj 189 99 t b f;
#X obj 159 259 outlet;
#X obj 109 9 inlet;
#X obj 189 9 inlet;
#X connect 0 0 2 0 empty;
#X connect 1 0 0 0 empty;
#X connect 1 1 0 1 empty;
#X connect 3 0 0 0 empty;
#X connect 4 0 1 0 empty;
#X restore 281 189 pd h&;
#N canvas 0 50 450 300 h& 0;
#X obj 159 179 &&;
#X obj 189 99 t b f;
#X obj 159 259 outlet;
#X obj 109 9 inlet;
#X obj 189 9 inlet;
#X connect 0 0 2 0 empty;
#X connect 1 0 0 0 empty;
#X connect 1 1 0 1 empty;
#X connect 3 0 0 0 empty;
#X connect 4 0 1 0 empty;
#X restore 328 189 pd h&;
#N canvas 0 50 450 300 h& 0;
#X obj 159 179 &&;
#X obj 189 99 t b f;
#X obj 159 259 outlet;
#X obj 109 9 inlet;
#X obj 189 9 inlet;
#X connect 0 0 2 0 empty;
#X connect 1 0 0 0 empty;
#X connect 1 1 0 1 empty;
#X connect 3 0 0 0 empty;
#X connect 4 0 1 0 empty;
#X restore 379 189 pd h&;
#N canvas 0 50 450 300 h& 0;
#X obj 159 179 &&;
#X obj 189 99 t b f;
#X obj 159 259 outlet;
#X obj 109 9 inlet;
#X obj 189 9 inlet;
#X connect 0 0 2 0 empty;
#X connect 1 0 0 0 empty;
#X connect 1 1 0 1 empty;
#X connect 3 0 0 0 empty;
#X connect 4 0 1 0 empty;
#X restore 426 189 pd h&;
#N canvas 0 50 450 300 h& 0;
#X obj 159 179 &&;
#X obj 189 99 t b f;
#X obj 159 259 outlet;
#X obj 109 9 inlet;
#X obj 189 9 inlet;
#X connect 0 0 2 0 empty;
#X connect 1 0 0 0 empty;
#X connect 1 1 0 1 empty;
#X connect 3 0 0 0 empty;
#X connect 4 0 1 0 empty;
#X restore 472 189 pd h&;
#N canvas 0 50 450 300 h& 0;
#X obj 159 179 &&;
#X obj 189 99 t b f;
#X obj 159 259 outlet;
#X obj 109 9 inlet;
#X obj 189 9 inlet;
#X connect 0 0 2 0 empty;
#X connect 1 0 0 0 empty;
#X connect 1 1 0 1 empty;
#X connect 3 0 0 0 empty;
#X connect 4 0 1 0 empty;
#X restore 519 189 pd h&;
#N canvas 0 50 450 300 h& 0;
#X obj 159 179 &&;
#X obj 189 99 t b f;
#X obj 159 259 outlet;
#X obj 109 9 inlet;
#X obj 189 9 inlet;
#X connect 0 0 2 0 empty;
#X connect 1 0 0 0 empty;
#X connect 1 1 0 1 empty;
#X connect 3 0 0 0 empty;
#X connect 4 0 1 0 empty;
#X restore 565 189 pd h&;
#N canvas 0 50 450 300 h& 0;
#X obj 159 179 &&;
#X obj 189 99 t b f;
#X obj 159 259 outlet;
#X obj 109 9 inlet;
#X obj 189 9 inlet;
#X connect 0 0 2 0 empty;
#X connect 1 0 0 0 empty;
#X connect 1 1 0 1 empty;
#X connect 3 0 0 0 empty;
#X connect 4 0 1 0 empty;
#X restore 612 189 pd h&;
#N canvas 0 50 450 300 h& 0;
#X obj 159 179 &&;
#X obj 189 99 t b f;
#X obj 159 259 outlet;
#X obj 109 9 inlet;
#X obj 189 9 inlet;
#X connect 0 0 2 0 empty;
#X connect 1 0 0 0 empty;
#X connect 1 1 0 1 empty;
#X connect 3 0 0 0 empty;
#X connect 4 0 1 0 empty;
#X restore 658 189 pd h&;
#N canvas 0 50 450 300 h& 0;
#X obj 159 179 &&;
#X obj 189 99 t b f;
#X obj 159 259 outlet;
#X obj 109 9 inlet;
#X obj 189 9 inlet;
#X connect 0 0 2 0 empty;
#X connect 1 0 0 0 empty;
#X connect 1 1 0 1 empty;
#X connect 3 0 0 0 empty;
#X connect 4 0 1 0 empty;
#X restore 705 189 pd h&;
#X connect 0 0 2 0 empty;
#X connect 0 0 4 0 empty;
#X connect 0 0 5 0 empty;
#X connect 0 0 3 0 empty;
#X connect 1 0 7 0 empty;
#X connect 1 0 8 0 empty;
#X connect 1 0 9 0 empty;
#X connect 1 0 6 0 empty;
#X connect 2 0 26 0 empty;
#X connect 2 0 27 0 empty;
#X connect 2 0 28 0 empty;
#X connect 2 0 29 0 empty;
#X connect 3 0 30 0 empty;
#X connect 3 0 31 0 empty;
#X connect 3 0 32 0 empty;
#X connect 3 0 33 0 empty;
#X connect 4 0 34 0 empty;
#X connect 4 0 35 0 empty;
#X connect 4 0 36 0 empty;
#X connect 4 0 37 0 empty;
#X connect 5 0 38 0 empty;
#X connect 5 0 39 0 empty;
#X connect 5 0 40 0 empty;
#X connect 5 0 41 0 empty;
#X connect 6 0 26 1 empty;
#X connect 6 0 30 1 empty;
#X connect 6 0 34 1 empty;
#X connect 6 0 38 1 empty;
#X connect 7 0 27 1 empty;
#X connect 7 0 31 1 empty;
#X connect 7 0 35 1 empty;
#X connect 7 0 39 1 empty;
#X connect 8 0 28 1 empty;
#X connect 8 0 32 1 empty;
#X connect 8 0 36 1 empty;
#X connect 8 0 40 1 empty;
#X connect 9 0 29 1 empty;
#X connect 9 0 33 1 empty;
#X connect 9 0 37 1 empty;
#X connect 9 0 41 1 empty;
#X connect 26 0 10 0 empty;
#X connect 27 0 11 0 empty;
#X connect 28 0 12 0 empty;
#X connect 29 0 13 0 empty;
#X connect 30 0 14 0 empty;
#X connect 31 0 15 0 empty;
#X connect 32 0 16 0 empty;
#X connect 33 0 17 0 empty;
#X connect 34 0 18 0 empty;
#X connect 35 0 19 0 empty;
#X connect 36 0 20 0 empty;
#X connect 37 0 21 0 empty;
#X connect 38 0 22 0 empty;
#X connect 39 0 23 0 empty;
#X connect 40 0 24 0 empty;
#X connect 41 0 25 0 empty;
#X restore 359 9 pd mode;
#N canvas 0 50 570 400 moon-lipstick 1;
#X obj 9 9 inlet~;
#X obj 262 9 inlet~;
#X obj 9 369 outlet~;
#X obj 262 369 outlet~;
#X obj 9 339 comb.rev~ 22230 0 1 0;
#X obj 262 339 comb.rev~ 22230 0 1 0;
#X obj 327 196 r k_genderfuck_\$0;
#X obj 103 69 r k_gender-amnt_\$0;
#X obj 313 255 *~ 0;
#X obj 313 166 tabread~ genderfuck_\$0;
#X obj 313 9 tabreceive~ index_\$0;
#X obj 40 44 tabread~ gender_\$0;
#X obj 499 9 inlet;
#X obj 499 39 switch~;
#X obj 409 289 r clear_delay_line_\$0;
#X obj 327 225 * 2;
#X obj 167 95 blocksize~ -ms;
#X obj 118 212 phasor~;
#X obj 118 151 blocksize~ -hz;
#X obj 40 125 expr~ rint($v1*$f2)*$f3;
#X obj 51 243 expr~ $v1%((1-$v2)*$f3);
#X obj 40 269 +~;
#X obj 186 212 r bins_\$0;
#X obj 51 179 *~ 0;
#X obj 118 182 * 2;
#X text 579 178 LMAO bitch;
#X connect 0 0 4 0 empty;
#X connect 1 0 5 0 empty;
#X connect 4 0 2 0 empty;
#X connect 5 0 3 0 empty;
#X connect 6 0 15 0 empty;
#X connect 7 0 19 1 empty;
#X connect 7 0 23 1 32.................P....r8+++OD....a++++qE....;
#X connect 8 0 5 4 32.................Q.....E...PD....PA...HB....;
#X connect 8 0 4 4 32.................Q....zz+++eD....M8+++CD....;
#X connect 9 0 8 0 empty;
#X connect 10 0 9 0 empty;
#X connect 10 0 11 0 32.................H....bw+++OB....W7+++yB....;
#X connect 11 0 19 0 empty;
#X connect 11 0 23 0 32.................V....r....fE....K....LG....;
#X connect 12 0 13 0 empty;
#X connect 14 0 4 0 32.................K....Dm++++B....w4+++6A....;
#X connect 14 0 5 0 32.................U....31+++eE....t8+++6A....;
#X connect 15 0 8 1 empty;
#X connect 16 0 19 2 empty;
#X connect 17 0 20 1 empty;
#X connect 18 0 24 0 empty;
#X connect 19 0 21 0 empty;
#X connect 20 0 21 1 empty;
#X connect 21 0 4 1 empty;
#X connect 21 0 5 1 32.................S....zO...vD....8C...HC....;
#X connect 22 0 20 2 empty;
#X connect 23 0 20 0 empty;
#X connect 24 0 17 0 empty;
#X restore 423 169 pd moon-lipstick;
#N canvas 0 50 506 342 sun-supersoaker 1;
#X obj 9 9 inlet~;
#X obj 219 9 inlet~;
#X obj 9 309 outlet~;
#X obj 219 309 outlet~;
#X obj 163 170 blocksize~ -ms;
#X obj 9 269 comb.rev~ 22230 0 1 0;
#X obj 219 269 comb.rev~ 22230 0 1 0;
#X obj 277 157 r k_genderfuck_\$0;
#X obj 96 146 r k_gender-amnt_\$0;
#X obj 29 199 expr~ rint($v1*$f2) * $f3;
#X obj 263 126 tabread~ genderfuck_\$0;
#X obj 263 86 tabreceive~ index_\$0;
#X obj 29 123 tabread~ gender_\$0;
#X obj 379 9 inlet;
#X obj 379 39 switch~;
#X obj 349 229 r clear_delay_line_\$0;
#X obj 277 186 * 2;
#X obj 263 215 *~ 0;
#X connect 0 0 5 0 empty;
#X connect 1 0 6 0 empty;
#X connect 4 0 9 2 empty;
#X connect 5 0 2 0 empty;
#X connect 6 0 3 0 empty;
#X connect 7 0 16 0 empty;
#X connect 8 0 9 1 empty;
#X connect 9 0 5 1 32.................n....r.....J....K....HC....;
#X connect 9 0 6 1 32.................Q....zM...PD....cC...HC....;
#X connect 10 0 17 0 empty;
#X connect 11 0 10 0 empty;
#X connect 11 0 12 0 32.................I....bw+++eB....W7+++GA....;
#X connect 12 0 9 0 empty;
#X connect 13 0 14 0 empty;
#X connect 15 0 5 0 32.................N....zk+++uC....c4+++SA....;
#X connect 15 0 6 0 32.................N....7x+++uC....u7+++SA....;
#X connect 16 0 17 1 empty;
#X connect 17 0 6 3 32.................Q....DC...PD....w....HB....;
#X connect 17 0 5 3 32.................Q.....1+++eD....f8+++KB....;
#X restore 108 169 pd sun-supersoaker;
#N canvas 0 50 508 436 sun-axe 1;
#X obj 9 9 inlet~;
#X obj 219 9 inlet~;
#X obj 9 399 outlet~;
#X obj 219 399 outlet~;
#X obj 163 260 blocksize~ -ms;
#X obj 9 359 comb.rev~ 22230 0 1 0;
#X obj 219 359 comb.rev~ 22230 0 1 0;
#X obj 277 247 r k_genderfuck_\$0;
#X obj 96 236 r k_gender-amnt_\$0;
#X obj 29 289 expr~ rint($v1*$f2) * $f3;
#X obj 263 216 tabread~ genderfuck_\$0;
#X obj 29 159 tabreceive~ index_\$0;
#X obj 29 213 tabread~ gender_\$0;
#X obj 439 9 inlet;
#X obj 439 39 switch~;
#X obj 349 319 r clear_delay_line_\$0;
#X obj 277 276 * 2;
#X obj 263 305 *~ 0;
#X obj 263 128 phasor~;
#X obj 263 188 tabread~ index_\$0;
#X obj 333 128 blocksize~;
#X obj 263 158 *~;
#X obj 263 39 r k_genderfuck_\$0;
#X obj 263 99 *;
#X obj 309 69 blocksize~ -hz;
#X obj 263 69 + 1;
#X connect 0 0 5 0 empty;
#X connect 1 0 6 0 empty;
#X connect 4 0 9 2 empty;
#X connect 5 0 2 0 empty;
#X connect 6 0 3 0 empty;
#X connect 7 0 16 0 empty;
#X connect 8 0 9 1 empty;
#X connect 9 0 5 1 32.................n....r.....J....K....HC....;
#X connect 9 0 6 1 32.................Q....zM...PD....cC...HC....;
#X connect 10 0 17 0 empty;
#X connect 11 0 12 0 empty;
#X connect 12 0 9 0 empty;
#X connect 13 0 14 0 empty;
#X connect 15 0 6 0 32.................N....7x+++uC....u7+++SA....;
#X connect 15 0 5 0 32.................N....zp+++uC....s5+++SA....;
#X connect 16 0 17 1 empty;
#X connect 17 0 5 4 32.................Q....72+++eD....+8+++KB....;
#X connect 17 0 6 4 32.................Q.....E...PD....PA...HB....;
#X connect 18 0 21 0 empty;
#X connect 19 0 10 0 empty;
#X connect 20 0 21 1 32.................E....X7+++eA....F++++q.....;
#X connect 21 0 19 0 empty;
#X connect 22 0 25 0 empty;
#X connect 23 0 18 0 empty;
#X connect 24 0 23 1 32.................E....38+++eA....d++++q.....;
#X connect 25 0 23 0 empty;
#X restore 238 169 pd sun-axe;
#N canvas 0 50 508 436 sun-testtube 1;
#X obj 9 9 inlet~;
#X obj 219 9 inlet~;
#X obj 9 409 outlet~;
#X obj 219 409 outlet~;
#X obj 163 260 blocksize~ -ms;
#X obj 9 369 comb.rev~ 22230 0 1 0;
#X obj 219 369 comb.rev~ 22230 0 1 0;
#X obj 287 247 r k_genderfuck_\$0;
#X obj 96 236 r k_gender-amnt_\$0;
#X obj 29 289 expr~ rint($v1*$f2) * $f3;
#X obj 273 216 tabread~ genderfuck_\$0;
#X obj 29 213 tabread~ gender_\$0;
#X obj 439 9 inlet;
#X obj 439 39 switch~;
#X obj 359 319 r clear_delay_line_\$0;
#X obj 287 276 * 2;
#X obj 273 305 *~ 0;
#X obj 273 128 phasor~;
#X obj 273 188 tabread~ index_\$0;
#X obj 343 128 blocksize~;
#X obj 273 158 *~;
#X obj 273 9 r k_genderfuck_\$0;
#X obj 273 99 *;
#X obj 319 69 blocksize~ -hz;
#X obj 273 69 + 1;
#X obj 29 124 phasor~;
#X obj 29 184 tabread~ index_\$0;
#X obj 99 124 blocksize~;
#X obj 29 154 *~;
#X obj 29 35 r k_genderfuck_\$0;
#X obj 29 95 *;
#X obj 129 64 blocksize~ -hz;
#X obj 273 39 * 3;
#X obj 29 65 expr $f1*15+1;
#X connect 0 0 5 0 empty;
#X connect 1 0 6 0 empty;
#X connect 4 0 9 2 empty;
#X connect 5 0 2 0 empty;
#X connect 6 0 3 0 empty;
#X connect 7 0 15 0 empty;
#X connect 8 0 9 1 empty;
#X connect 9 0 5 1 32.................n....r.....J....K....HC....;
#X connect 9 0 6 1 32.................Q....zM...PD....cC...HC....;
#X connect 10 0 16 0 empty;
#X connect 11 0 9 0 empty;
#X connect 12 0 13 0 empty;
#X connect 14 0 6 0 32.................N....7x+++uC....u7+++SA....;
#X connect 14 0 5 0 32.................N....zp+++uC....s5+++SA....;
#X connect 15 0 16 1 empty;
#X connect 16 0 5 4 32.................Q....72+++eD....+8+++KB....;
#X connect 16 0 6 4 32.................Q.....E...PD....PA...HB....;
#X connect 17 0 20 0 empty;
#X connect 18 0 10 0 empty;
#X connect 19 0 20 1 32.................E....X7+++eA....F++++q.....;
#X connect 20 0 18 0 empty;
#X connect 21 0 32 0 empty;
#X connect 22 0 17 0 empty;
#X connect 23 0 22 1 32.................E....38+++eA....d++++q.....;
#X connect 24 0 22 0 empty;
#X connect 25 0 28 0 empty;
#X connect 26 0 11 0 empty;
#X connect 27 0 28 1 32.................E....X7+++eA....F++++q.....;
#X connect 28 0 26 0 empty;
#X connect 29 0 33 0 empty;
#X connect 30 0 25 0 empty;
#X connect 31 0 30 1 32.................E....38+++eA....d++++q.....;
#X connect 32 0 24 0 empty;
#X connect 33 0 30 0 empty;
#X restore 315 169 pd sun-testtube;
#N canvas 0 50 506 342 moon-supersoaker 1;
#X obj 9 9 inlet~;
#X obj 219 9 inlet~;
#X obj 9 309 outlet~;
#X obj 219 309 outlet~;
#X obj 9 269 comb.rev~ 22230 0 1 0;
#X obj 219 269 comb.rev~ 22230 0 1 0;
#X obj 277 157 r k_genderfuck_\$0;
#X obj 121 149 r k_gender-amnt_\$0;
#X obj 263 126 tabread~ genderfuck_\$0;
#X obj 263 86 tabreceive~ index_\$0;
#X obj 29 123 tabread~ gender_\$0;
#X obj 379 9 inlet;
#X obj 379 39 switch~;
#X obj 349 229 r clear_delay_line_\$0;
#X obj 277 186 * 2;
#X obj 263 215 *~ 0;
#X obj 29 199 expr~ $v1*$f2*10;
#X connect 0 0 4 0 empty;
#X connect 1 0 5 0 empty;
#X connect 4 0 2 0 empty;
#X connect 5 0 3 0 empty;
#X connect 6 0 14 0 empty;
#X connect 7 0 16 1 empty;
#X connect 8 0 15 0 empty;
#X connect 9 0 8 0 empty;
#X connect 9 0 10 0 32.................I....bw+++eB....W7+++GA....;
#X connect 10 0 16 0 empty;
#X connect 11 0 12 0 empty;
#X connect 13 0 4 0 32.................N....zk+++uC....c4+++SA....;
#X connect 13 0 5 0 32.................N....7x+++uC....u7+++SA....;
#X connect 14 0 15 1 empty;
#X connect 15 0 5 3 32.................Q....DC...PD....w....HB....;
#X connect 15 0 4 3 32.................Q.....1+++eD....f8+++KB....;
#X connect 16 0 4 1 32.................n....r.....J....K....HC....;
#X connect 16 0 5 1 32.................Q....zM...PD....cC...HC....;
#X restore 533 169 pd moon-supersoaker;
#N canvas 0 50 570 440 moon-axe 1;
#X obj 9 9 inlet~;
#X obj 262 9 inlet~;
#X obj 9 409 outlet~;
#X obj 262 409 outlet~;
#X obj 9 379 comb.rev~ 22230 0 1 0;
#X obj 262 379 comb.rev~ 22230 0 1 0;
#X obj 327 236 r k_genderfuck_\$0;
#X obj 103 109 r k_gender-amnt_\$0;
#X obj 313 295 *~ 0;
#X obj 313 206 tabread~ genderfuck_\$0;
#X obj 40 53 tabreceive~ index_\$0;
#X obj 40 84 tabread~ gender_\$0;
#X obj 499 9 inlet;
#X obj 499 39 switch~;
#X obj 409 329 r clear_delay_line_\$0;
#X obj 327 265 * 2;
#X obj 167 135 blocksize~ -ms;
#X obj 118 252 phasor~;
#X obj 118 191 blocksize~ -hz;
#X obj 40 165 expr~ rint($v1*$f2)*$f3;
#X obj 51 283 expr~ $v1%((1-$v2)*$f3);
#X obj 40 309 +~;
#X obj 186 252 r bins_\$0;
#X obj 51 219 *~ 0;
#X obj 118 222 * 2;
#X obj 313 119 phasor~;
#X obj 313 179 tabread~ index_\$0;
#X obj 383 119 blocksize~;
#X obj 313 149 *~;
#X obj 313 30 r k_genderfuck_\$0;
#X obj 313 90 *;
#X obj 359 60 blocksize~ -hz;
#X obj 313 60 + 1;
#X connect 0 0 4 0 empty;
#X connect 1 0 5 0 empty;
#X connect 4 0 2 0 empty;
#X connect 5 0 3 0 empty;
#X connect 6 0 15 0 empty;
#X connect 7 0 19 1 empty;
#X connect 7 0 23 1 32.................P....r8+++OD....a++++qE....;
#X connect 8 0 5 4 32.................Q.....E...PD....PA...HB....;
#X connect 8 0 4 4 32.................Q....zz+++eD....M8+++CD....;
#X connect 9 0 8 0 empty;
#X connect 10 0 11 0 empty;
#X connect 11 0 19 0 empty;
#X connect 11 0 23 0 32.................V....r....fE....K....LG....;
#X connect 12 0 13 0 empty;
#X connect 14 0 4 0 32.................K....Dm++++B....w4+++6A....;
#X connect 14 0 5 0 32.................U....31+++eE....t8+++6A....;
#X connect 15 0 8 1 empty;
#X connect 16 0 19 2 empty;
#X connect 17 0 20 1 empty;
#X connect 18 0 24 0 empty;
#X connect 19 0 21 0 empty;
#X connect 20 0 21 1 empty;
#X connect 21 0 4 1 empty;
#X connect 21 0 5 1 32.................S....zO...vD....8C...HC....;
#X connect 22 0 20 2 empty;
#X connect 23 0 20 0 empty;
#X connect 24 0 17 0 empty;
#X connect 25 0 28 0 empty;
#X connect 26 0 9 0 empty;
#X connect 27 0 28 1 32.................E....X7+++eA....F++++q.....;
#X connect 28 0 26 0 empty;
#X connect 29 0 32 0 empty;
#X connect 30 0 25 0 empty;
#X connect 31 0 30 1 32.................E....38+++eA....d++++q.....;
#X connect 32 0 30 0 empty;
#X restore 675 169 pd moon-axe;
#N canvas 0 50 570 570 moon-testtube 1;
#X obj 9 9 inlet~;
#X obj 261 9 inlet~;
#X obj 9 539 outlet~;
#X obj 262 539 outlet~;
#X obj 9 509 comb.rev~ 22230 0 1 0;
#X obj 262 509 comb.rev~ 22230 0 1 0;
#X obj 327 366 r k_genderfuck_\$0;
#X obj 103 239 r k_gender-amnt_\$0;
#X obj 313 425 *~ 0;
#X obj 313 336 tabread~ genderfuck_\$0;
#X obj 40 214 tabread~ gender_\$0;
#X obj 499 9 inlet;
#X obj 499 39 switch~;
#X obj 409 459 r clear_delay_line_\$0;
#X obj 327 395 * 2;
#X obj 167 265 blocksize~ -ms;
#X obj 118 382 phasor~;
#X obj 118 321 blocksize~ -hz;
#X obj 40 295 expr~ rint($v1*$f2)*$f3;
#X obj 51 413 expr~ $v1%((1-$v2)*$f3);
#X obj 40 439 +~;
#X obj 186 382 r bins_\$0;
#X obj 51 349 *~ 0;
#X obj 118 352 * 2;
#X obj 313 249 phasor~;
#X obj 313 309 tabread~ index_\$0;
#X obj 383 249 blocksize~;
#X obj 313 279 *~;
#X obj 313 220 *;
#X obj 359 190 blocksize~ -hz;
#X obj 313 190 + 1;
#X obj 40 128 phasor~;
#X obj 40 188 tabread~ index_\$0;
#X obj 110 128 blocksize~;
#X obj 40 158 *~;
#X obj 40 39 r k_genderfuck_\$0;
#X obj 40 99 *;
#X obj 140 68 blocksize~ -hz;
#X obj 40 69 expr $f1*15+1;
#X obj 313 134 r k_genderfuck_\$0;
#X obj 313 164 * 3;
#X connect 0 0 4 0 empty;
#X connect 1 0 5 0 empty;
#X connect 4 0 2 0 empty;
#X connect 5 0 3 0 empty;
#X connect 6 0 14 0 empty;
#X connect 7 0 18 1 empty;
#X connect 7 0 22 1 32.................P....r8+++OD....a++++qE....;
#X connect 8 0 5 4 32.................Q.....E...PD....PA...HB....;
#X connect 8 0 4 4 32.................Q....zz+++eD....M8+++CD....;
#X connect 9 0 8 0 empty;
#X connect 10 0 18 0 empty;
#X connect 10 0 22 0 32.................V....r....fE....K....LG....;
#X connect 11 0 12 0 empty;
#X connect 13 0 4 0 32.................K....Dm++++B....w4+++6A....;
#X connect 13 0 5 0 32.................U....31+++eE....t8+++6A....;
#X connect 14 0 8 1 empty;
#X connect 15 0 18 2 empty;
#X connect 16 0 19 1 empty;
#X connect 17 0 23 0 empty;
#X connect 18 0 20 0 empty;
#X connect 19 0 20 1 empty;
#X connect 20 0 4 1 empty;
#X connect 20 0 5 1 32.................S....zO...vD....8C...HC....;
#X connect 21 0 19 2 empty;
#X connect 22 0 19 0 empty;
#X connect 23 0 16 0 empty;
#X connect 24 0 27 0 empty;
#X connect 25 0 9 0 empty;
#X connect 26 0 27 1 32.................E....X7+++eA....F++++q.....;
#X connect 27 0 25 0 empty;
#X connect 28 0 24 0 empty;
#X connect 29 0 28 1 32.................E....38+++eA....d++++q.....;
#X connect 30 0 28 0 empty;
#X connect 31 0 34 0 empty;
#X connect 32 0 10 0 empty;
#X connect 33 0 34 1 32.................E....X7+++eA....F++++q.....;
#X connect 34 0 32 0 empty;
#X connect 35 0 38 0 empty;
#X connect 36 0 31 0 empty;
#X connect 37 0 36 1 32.................E....38+++eA....d++++q.....;
#X connect 38 0 36 0 empty;
#X connect 39 0 40 0 empty;
#X connect 40 0 30 0 empty;
#X restore 765 169 pd moon-testtube;
#N canvas 0 50 525 342 star-lipstick 1;
#X obj 9 9 inlet~;
#X obj 219 9 inlet~;
#X obj 9 309 outlet~;
#X obj 219 309 outlet~;
#X obj 141 170 blocksize~ -ms;
#X obj 9 269 comb.rev~ 22230 0 1 0;
#X obj 219 269 comb.rev~ 22230 0 1 0;
#X obj 277 156 r k_genderfuck_\$0;
#X obj 85 146 r k_gender-amnt_\$0;
#X obj 263 215 *~ 0;
#X obj 263 126 tabread~ genderfuck_\$0;
#X obj 263 86 tabreceive~ index_\$0;
#X obj 29 123 tabread~ gender_\$0;
#X obj 459 9 inlet;
#X obj 459 49 switch~;
#X obj 369 229 r clear_delay_line_\$0;
#X obj 277 185 * 2;
#N canvas 0 50 450 300 block-args 0;
#X obj 149 29 r bins_\$0;
#X obj 219 29 r overlap_\$0;
#X obj 149 249 outlet;
#X obj 219 99 t b f;
#X obj 149 149 pack 1024 4;
#X msg 149 189 set \$1 \$2 1;
#X connect 0 0 4 0 empty;
#X connect 1 0 3 0 empty;
#X connect 3 0 4 0 empty;
#X connect 3 1 4 1 empty;
#X connect 4 0 5 0 empty;
#X connect 5 0 2 0 empty;
#X restore 359 9 pd block-args;
#X obj 29 199 expr~ $v1 * $f2 * $f3;
#X text 499 8 why does reblocking make it heavier?;
#X connect 0 0 5 0 empty;
#X connect 1 0 6 0 empty;
#X connect 4 0 18 2 empty;
#X connect 5 0 2 0 empty;
#X connect 6 0 3 0 empty;
#X connect 7 0 16 0 empty;
#X connect 8 0 18 1 empty;
#X connect 9 0 5 4 32.................Q....72+++eD....+8+++KB....;
#X connect 9 0 6 4 32.................Q.....E...PD....PA...HB....;
#X connect 10 0 9 0 empty;
#X connect 11 0 10 0 empty;
#X connect 11 0 12 0 32.................I....bw+++eB....W7+++GA....;
#X connect 12 0 18 0 empty;
#X connect 13 0 14 0 empty;
#X connect 15 0 5 0 32.................N....7i+++uC....+3+++SA....;
#X connect 15 0 6 0 32.................N....Dw+++uC....Q7+++SA....;
#X connect 16 0 9 1 empty;
#X connect 17 0 14 0 32.................J....PF...fB....jA...PA....;
#X connect 18 0 6 1 32.................Q....zM...PD....cC...HC....;
#X connect 18 0 5 1 32.................n....r.....J....K....HC....;
#X restore 22 208 pd star-lipstick;
#X text 609 378 and thus god created 16 and only 16 genders;
#N canvas 0 50 525 342 star-supersoaker 1;
#X obj 9 9 inlet~;
#X obj 219 9 inlet~;
#X obj 9 309 outlet~;
#X obj 219 309 outlet~;
#X obj 141 170 blocksize~ -ms;
#X obj 9 269 comb.rev~ 22230 0 1 0;
#X obj 219 269 comb.rev~ 22230 0 1 0;
#X obj 277 156 r k_genderfuck_\$0;
#X obj 85 146 r k_gender-amnt_\$0;
#X obj 263 215 *~ 0;
#X obj 263 126 tabread~ genderfuck_\$0;
#X obj 263 86 tabreceive~ index_\$0;
#X obj 29 123 tabread~ gender_\$0;
#X obj 459 9 inlet;
#X obj 459 49 switch~;
#X obj 369 229 r clear_delay_line_\$0;
#X obj 277 185 * 2;
#N canvas 0 50 450 300 block-args 0;
#X obj 149 29 r bins_\$0;
#X obj 219 29 r overlap_\$0;
#X obj 149 249 outlet;
#X obj 219 99 t b f;
#X obj 149 149 pack 1024 4;
#X msg 149 189 set \$1 \$2 1;
#X connect 0 0 4 0 empty;
#X connect 1 0 3 0 empty;
#X connect 3 0 4 0 empty;
#X connect 3 1 4 1 empty;
#X connect 4 0 5 0 empty;
#X connect 5 0 2 0 empty;
#X restore 359 9 pd block-args;
#X obj 29 199 expr~ $v1 * $f2 * $f3;
#X connect 0 0 5 0 empty;
#X connect 1 0 6 0 empty;
#X connect 4 0 18 2 empty;
#X connect 5 0 2 0 empty;
#X connect 6 0 3 0 empty;
#X connect 7 0 16 0 empty;
#X connect 8 0 18 1 empty;
#X connect 9 0 5 3 32.................Q.....1+++eD....f8+++KB....;
#X connect 9 0 6 3 32.................Q....DC...PD....w....HB....;
#X connect 10 0 9 0 empty;
#X connect 11 0 10 0 empty;
#X connect 11 0 12 0 32.................I....bw+++eB....W7+++GA....;
#X connect 12 0 18 0 empty;
#X connect 13 0 14 0 empty;
#X connect 15 0 5 0 32.................N....7i+++uC....+3+++SA....;
#X connect 15 0 6 0 32.................N....Dw+++uC....Q7+++SA....;
#X connect 16 0 9 1 empty;
#X connect 17 0 14 0 32.................J....PF...fB....jA...PA....;
#X connect 18 0 6 1 32.................Q....zM...PD....cC...HC....;
#X connect 18 0 5 1 32.................n....r.....J....K....HC....;
#X restore 122 209 pd star-supersoaker;
#N canvas 0 50 525 430 star-axe 1;
#X obj 9 9 inlet~;
#X obj 219 9 inlet~;
#X obj 9 399 outlet~;
#X obj 219 399 outlet~;
#X obj 141 260 blocksize~ -ms;
#X obj 9 359 comb.rev~ 22230 0 1 0;
#X obj 219 359 comb.rev~ 22230 0 1 0;
#X obj 277 246 r k_genderfuck_\$0;
#X obj 85 236 r k_gender-amnt_\$0;
#X obj 263 305 *~ 0;
#X obj 263 216 tabread~ genderfuck_\$0;
#X obj 29 179 tabreceive~ index_\$0;
#X obj 29 213 tabread~ gender_\$0;
#X obj 459 9 inlet;
#X obj 459 49 switch~;
#X obj 369 319 r clear_delay_line_\$0;
#X obj 277 275 * 2;
#N canvas 0 50 450 300 block-args 0;
#X obj 149 29 r bins_\$0;
#X obj 219 29 r overlap_\$0;
#X obj 149 249 outlet;
#X obj 219 99 t b f;
#X obj 149 149 pack 1024 4;
#X msg 149 189 set \$1 \$2 1;
#X connect 0 0 4 0 empty;
#X connect 1 0 3 0 empty;
#X connect 3 0 4 0 empty;
#X connect 3 1 4 1 empty;
#X connect 4 0 5 0 empty;
#X connect 5 0 2 0 empty;
#X restore 359 9 pd block-args;
#X obj 29 289 expr~ $v1 * $f2 * $f3;
#X obj 263 129 phasor~;
#X obj 263 189 tabread~ index_\$0;
#X obj 333 129 blocksize~;
#X obj 263 159 *~;
#X obj 263 45 r k_genderfuck_\$0;
#X obj 263 103 *;
#X obj 309 73 blocksize~ -hz;
#X obj 263 73 + 1;
#X connect 0 0 5 0 empty;
#X connect 1 0 6 0 empty;
#X connect 4 0 18 2 empty;
#X connect 5 0 2 0 empty;
#X connect 6 0 3 0 empty;
#X connect 7 0 16 0 empty;
#X connect 8 0 18 1 empty;
#X connect 9 0 5 4 32.................Q....72+++eD....+8+++KB....;
#X connect 9 0 6 4 32.................Q.....E...PD....PA...HB....;
#X connect 10 0 9 0 empty;
#X connect 11 0 12 0 empty;
#X connect 12 0 18 0 empty;
#X connect 13 0 14 0 empty;
#X connect 15 0 5 0 32.................N....7i+++uC....+3+++SA....;
#X connect 15 0 6 0 32.................N....Dw+++uC....Q7+++SA....;
#X connect 16 0 9 1 empty;
#X connect 17 0 14 0 32.................J....PF...fB....jA...PA....;
#X connect 18 0 6 1 32.................Q....zM...PD....cC...HC....;
#X connect 18 0 5 1 32.................n....r.....J....K....HC....;
#X connect 19 0 22 0 empty;
#X connect 20 0 10 0 empty;
#X connect 21 0 22 1 32.................E....X7+++eA....F++++q.....;
#X connect 22 0 20 0 empty;
#X connect 23 0 26 0 empty;
#X connect 24 0 19 0 empty;
#X connect 25 0 24 1 32.................E....38+++eA....d++++q.....;
#X connect 26 0 24 0 empty;
#X restore 254 209 pd star-axe;
#N canvas 0 50 525 460 star-testtube 1;
#X obj 9 9 inlet~;
#X obj 219 9 inlet~;
#X obj 9 429 outlet~;
#X obj 219 429 outlet~;
#X obj 141 290 blocksize~ -ms;
#X obj 9 389 comb.rev~ 22230 0 1 0;
#X obj 219 389 comb.rev~ 22230 0 1 0;
#X obj 277 276 r k_genderfuck_\$0;
#X obj 85 266 r k_gender-amnt_\$0;
#X obj 263 335 *~ 0;
#X obj 263 246 tabread~ genderfuck_\$0;
#X obj 29 243 tabread~ gender_\$0;
#X obj 459 9 inlet;
#X obj 459 49 switch~;
#X obj 369 349 r clear_delay_line_\$0;
#X obj 277 305 * 2;
#N canvas 0 50 450 300 block-args 0;
#X obj 149 29 r bins_\$0;
#X obj 219 29 r overlap_\$0;
#X obj 149 249 outlet;
#X obj 219 99 t b f;
#X obj 149 149 pack 1024 4;
#X msg 149 189 set \$1 \$2 1;
#X connect 0 0 4 0 empty;
#X connect 1 0 3 0 empty;
#X connect 3 0 4 0 empty;
#X connect 3 1 4 1 empty;
#X connect 4 0 5 0 empty;
#X connect 5 0 2 0 empty;
#X restore 359 9 pd block-args;
#X obj 263 159 phasor~;
#X obj 263 219 tabread~ index_\$0;
#X obj 333 159 blocksize~;
#X obj 263 189 *~;
#X obj 263 45 r k_genderfuck_\$0;
#X obj 263 133 *;
#X obj 309 103 blocksize~ -hz;
#X obj 263 103 + 1;
#X obj 29 154 phasor~;
#X obj 29 214 tabread~ index_\$0;
#X obj 99 154 blocksize~;
#X obj 29 184 *~;
#X obj 29 65 r k_genderfuck_\$0;
#X obj 29 125 *;
#X obj 129 94 blocksize~ -hz;
#X obj 29 95 expr $f1*15+1;
#X obj 263 73 * 3;
#X obj 29 319 expr~ $v1 * $f2 * $f3;
#X connect 0 0 5 0 empty;
#X connect 1 0 6 0 empty;
#X connect 4 0 34 2 empty;
#X connect 5 0 2 0 empty;
#X connect 6 0 3 0 empty;
#X connect 7 0 15 0 empty;
#X connect 8 0 34 1 empty;
#X connect 9 0 5 4 32.................Q....72+++eD....+8+++KB....;
#X connect 9 0 6 4 32.................Q.....E...PD....PA...HB....;
#X connect 10 0 9 0 empty;
#X connect 11 0 34 0 empty;
#X connect 12 0 13 0 empty;
#X connect 14 0 5 0 32.................N....7i+++uC....+3+++SA....;
#X connect 14 0 6 0 32.................N....Dw+++uC....Q7+++SA....;
#X connect 15 0 9 1 empty;
#X connect 16 0 13 0 32.................J....PF...fB....jA...PA....;
#X connect 17 0 20 0 empty;
#X connect 18 0 10 0 empty;
#X connect 19 0 20 1 32.................E....X7+++eA....F++++q.....;
#X connect 20 0 18 0 empty;
#X connect 21 0 33 0 empty;
#X connect 22 0 17 0 empty;
#X connect 23 0 22 1 32.................E....38+++eA....d++++q.....;
#X connect 24 0 22 0 empty;
#X connect 25 0 28 0 empty;
#X connect 26 0 11 0 empty;
#X connect 27 0 28 1 32.................E....X7+++eA....F++++q.....;
#X connect 28 0 26 0 empty;
#X connect 29 0 32 0 empty;
#X connect 30 0 25 0 empty;
#X connect 31 0 30 1 32.................E....38+++eA....d++++q.....;
#X connect 32 0 30 0 empty;
#X connect 33 0 24 0 empty;
#X connect 34 0 6 1 32.................Q....zM...PD....cC...HC....;
#X connect 34 0 5 1 32.................n....r.....J....K....HC....;
#X restore 334 209 pd star-testtube;
#X connect 0 0 6 0 empty;
#X connect 0 0 14 0 32.................X....Pu....F....zK...vH....;
#X connect 0 0 13 0 32.................X....no....F....ZJ...vH....;
#X connect 0 0 12 0 32.................X....vf....F....LH...vH....;
#X connect 0 0 11 0 32.................X....HS....F....xD...vH....;
#X connect 0 0 10 0 32.................X....TN....F....kC...vH....;
#X connect 0 0 9 0 32.................X....LF....F....iA...vH....;
#X connect 0 0 8 0 32.................X....3Y....F....dF...vH....;
#X connect 0 0 15 0 32.................X....z.....F....M....LK....;
#X connect 0 0 17 0 32.................W....DG...vE....wA...PK....;
#X connect 0 0 18 0 32.................W....PO...vE....zC...PK....;
#X connect 0 0 19 0 32.................W....TT...vE....EE...PK....;
#X connect 1 0 14 1 empty;
#X connect 1 0 9 1 32.................r....XW+++OK....10+++yH....;
#X connect 1 0 10 1 32.................r....3c+++OK....d2+++yH....;
#X connect 1 0 13 1 32.................r....j4+++OK....Y9+++yH....;
#X connect 1 0 15 1 32.................r....bQ+++OK....Wz+++SK....;
#X connect 1 0 6 1 32.................r....LP+++OK....Cz+++yH....;
#X connect 1 0 11 1 32.................r....ji+++OK....43+++yH....;
#X connect 1 0 8 1 32.................r....bp+++OK....m5+++yH....;
#X connect 1 0 12 1 32.................r....Tx+++OK....k7+++yH....;
#X connect 1 0 17 1 32.................r....TX+++OK....E1+++SK....;
#X connect 1 0 18 1 32.................q....fe++++J....32+++SK....;
#X connect 1 0 19 1 32.................r....zj+++OK....M4+++SK....;
#X connect 5 0 4 0 empty;
#X connect 6 0 2 0 empty;
#X connect 6 1 3 0 32..................B...fv....f....HL...XI....;
#X connect 7 0 6 2 32.................K....3t++++B....t6+++yH....;
#X connect 7 1 9 2 32.................O....70++++C....e8+++yH....;
#X connect 7 2 10 2 32.................R....r4+++uD....a9+++yH....;
#X connect 7 3 11 2 32.................N....P++++uC....z++++yH....;
#X connect 7 4 8 2 32.................S.....E...vD....PA...vH....;
#X connect 7 5 12 2 32.................N....zL...fC....MC...vH....;
#X connect 7 6 13 2 32.................K....TQ...vB....UD...vH....;
#X connect 7 7 14 2 32.................G....rW...vA....6E...vH....;
#X connect 7 8 15 2 empty;
#X connect 7 9 17 2 empty;
#X connect 7 10 18 2 empty;
#X connect 7 11 19 2 empty;
#X connect 8 0 2 0 32.................NB...Ll+++ui....i4+++aI....;
#X connect 8 1 3 0 32..................B...7U....f....eE...XI....;
#X connect 9 0 2 0 32.................NB...34+++ui....d9+++aI....;
#X connect 9 1 3 0 32..................B...Xn....f....FJ...XI....;
#X connect 10 0 2 0 32.................NB...vw+++ui....b7+++aI....;
#X connect 10 1 3 0 32..................B...fi....f....3H...XI....;
#X connect 11 0 2 0 32.................NB...7r+++ui....O6+++aI....;
#X connect 11 1 3 0 32..................B...3b....f....NG...XI....;
#X connect 12 0 2 0 32.................NB...Te+++ui....02+++aI....;
#X connect 12 1 3 0 32..................B...DM....f....QC...XI....;
#X connect 13 0 2 0 32.................NB...bV+++ui....m0+++aI....;
#X connect 13 1 3 0 32..................B...bG....f....2A...XI....;
#X connect 14 0 2 0 32.................NB...zP+++ui....Mz+++aI....;
#X connect 14 1 3 0 empty;
#X connect 15 0 2 0 32.................mA...P+++++Y....z+++++F....;
#X connect 15 1 3 0 32.................YA...nu...PV....5K...7F....;
#X connect 17 0 2 0 32.................lA....4+++uY....P9+++6F....;
#X connect 17 1 3 0 32.................XA...Xm....V....1I...3F....;
#X connect 18 0 2 0 32.................lA...vv+++uY....L7+++6F....;
#X connect 18 1 3 0 32.................XA...Xh....V....lH...3F....;
#X connect 19 0 2 0 32.................kA...vq+++eY....75+++6F....;
#X connect 19 1 3 0 32.................XA...na....V....5F...3F....;
#X restore 204 143 pd gender;
