#N canvas 827 239 527 327 12;
#N canvas 0 50 450 394 read-gay-index 1;
#X obj 9 9 inlet~;
#X text 50 8 for order of execution;
#X obj 59 359 outlet~;
#X obj 149 359 outlet~;
#X obj 206 117 r k_gay-amnt_\$0;
#X obj 59 39 inlet;
#X obj 149 39 inlet;
#X obj 149 279 tabread~;
#X obj 59 279 tabread~;
#X obj 195 147 *~;
#X obj 215 187 ramp~ 1 0;
#X obj 215 221 expr~ $v1*(1-$f2);
#X obj 232 157 b;
#X obj 230 63 r bins_\$0;
#X obj 195 93 *~ 1024;
#X obj 345 119 blocksize~;
#X obj 149 329 *~;
#X obj 335 221 expr~ $v1 < $f2;
#X obj 59 329 *~;
#X text 239 244 ^ wrong but i like;
#X obj 195 10 tabreceive~ index_\$0;
#X obj 195 39 tabread~ gay_\$0;
#X connect 4 0 9 1 empty;
#X connect 4 0 11 1 32.................E....XF...PA....lA....E....;
#X connect 5 0 8 0 empty;
#X connect 6 0 7 0 empty;
#X connect 7 0 16 0 empty;
#X connect 8 0 18 0 empty;
#X connect 9 0 8 0 32.................M....j2+++eC....48+++CG....;
#X connect 9 0 7 0 32.................U....L8+++eE....S++++CG....;
#X connect 10 0 11 0 empty;
#X connect 10 0 17 0 32.................H....fG....B....3A...3.....;
#X connect 11 0 8 0 32.................M....71+++eC....u8+++aB....;
#X connect 11 0 7 0 32.................a....j7++++F....I++++aB....;
#X connect 12 0 10 0 32.................E....j9+++eA....o++++q.....;
#X connect 13 0 14 1 empty;
#X connect 13 0 17 1 32.................C....fK...v.....3B...X.....;
#X connect 14 0 9 0 empty;
#X connect 15 0 10 3 32.................h....P5+++uH....j9+++CC....;
#X connect 15 0 12 0 32.................K....z3++++B....M9+++KA....;
#X connect 16 0 3 0 empty;
#X connect 17 0 16 1 32.................MA...v0+++eS....b8+++iE....;
#X connect 17 0 18 1 32.................CA...Hv++++P....B7+++iE....;
#X connect 18 0 2 0 empty;
#X connect 20 0 21 0 empty;
#X connect 21 0 14 0 empty;
#X restore 210 133 pd read-gay-index;
