#N canvas 827 239 526 521 12;
#X obj 606 361 cnv 15 21 21 empty skull ᧔ -259 -18 0 39 #575757 #ffca00 0;
#X obj 606 391 cnv 15 21 21 empty knife ᨧ -141 -44 0 39 #575757 #ffffff 0;
#X obj 606 421 cnv 15 21 21 empty nuclear ᨨ -143 46 0 36 #575757 #ffffff 0;
#X obj 606 451 cnv 15 21 21 empty biohaz ᨉ -262 13 0 46 #575757 #ffffff 0;
#X obj 666 331 cnv 15 21 21 empty cat ᦂ -478 12 0 33 #575757 #ffacab 0;
#X obj 636 391 cnv 15 21 21 empty trans ᭨ -612 -47 0 48 #575757 #ff0088 0;
#X obj 636 421 cnv 15 21 21 empty dna ᮈ -493 -73 0 42 #575757 #ffffff 0;
#X obj 636 451 cnv 15 21 21 empty orb ᯔ -611 10 0 42 #575757 #ffffff 0;
#X obj 666 361 cnv 15 21 21 empty shrimp ᤎ -358 -14 0 39 #575757 #ffffff 0;
#X obj 666 391 cnv 15 21 21 empty fire ᮘ -476 -90 0 39 #575757 #ffffff 0;
#X obj 666 421 cnv 15 21 21 empty mushroom ᯾ -484 40 0 41 #575757 #ffffff 0;
#X obj 666 451 cnv 15 21 21 empty wettt ᰕ -477 -265 0 41 #575757 #00abff 0;
#X obj 694 361 cnv 15 21 21 empty kiss ᯜ -399 -180 0 39 #575757 #ffffff 0;
#X obj 696 391 cnv 15 21 21 empty 8ball ᮌ -391 72 0 39 #575757 #ffffff 0;
#X obj 696 421 cnv 15 21 21 empty rainbow ᮝ -395 -123 0 46 #575757 #ffffff 0;
#X obj 699 449 cnv 15 21 21 empty candy ᱟ -347 -147 0 44 #575757 #ffffff 0;
#X obj 726 361 cnv 15 21 21 empty tooth ᯚ -272 -336 0 42 #575757 #ffffff 0;
#X obj 726 391 cnv 15 21 21 empty needle ᬯ -272 -207 0 53 #575757 #ffffff 0;
#X obj 726 421 cnv 15 21 21 empty bandage ᯊ -272 -117 0 49 #575757 #ffffff 0;
#X obj 726 450 cnv 15 21 21 empty sun ラ -702 -419 0 40 #575757 #ffca00 0;
#X obj 756 361 cnv 15 21 21 empty moon ᯂ -621 -336 0 40 #575757 #ffffff 0;
#X obj 756 391 cnv 15 21 21 empty planet ᯋ -624 -251 0 49 #575757 #ffffff 0;
#X obj 784 391 cnv 15 21 21 empty testtube ᥌ -639 -94 0 55 #575757 #ffffff 0;
#X obj 756 421 cnv 15 21 21 empty dino ᦰ -453 -281 0 53 #575757 #ffffff 0;
#X obj 756 451 cnv 15 21 21 empty scissors ᮔ -412 -264 0 42 #575757 #ff4900 0;
#X obj 786 421 cnv 15 21 21 empty 2lungs ᦺ -439 -387 0 41 #575757 #ff003f 0;
#X obj 786 451 cnv 15 21 21 empty heart ᮛ -441 -306 0 46 #575757 #ffffff 0;
#X obj 814 421 cnv 15 21 21 empty brain ᮏ -352 -278 0 41 #575757 #ffffff 0;
#X obj 816 451 cnv 15 21 21 empty dharma ᮎ -513 -420 0 41 #575757 #ffffff 0;
#X obj 816 391 cnv 15 21 21 empty atom ᬦ -629 -251 0 41 #575757 #ffffff 0;
#X obj 786 361 cnv 15 21 21 empty star ᭪ -752 -224 0 43 #575757 #ffffff 0;
#X obj 636 361 cnv 15 21 21 empty feather ᪕ -493 101 0 49 #575757 #ffffff 0;
#X obj 846 421 cnv 15 21 21 empty supersoaker ᯡ -709 -238 0 40 #575757 #ffffff 0;
#X obj 846 391 cnv 15 21 21 empty axe ᱅ -818 -91 0 44 #575757 #ffffff 0;
#X obj 816 361 cnv 15 21 21 empty clover ᦟ -631 -337 0 44 #575757 #a1ff00 0;
#X obj 846 361 cnv 15 21 21 empty lipstick ᮠ -818 -172 0 44 #575757 #7600ff 0;
#X text 353 484 da;
#X text 30 49 ra;
#X text 199 358 ka;
#X text 349 368 4;
#X text 149 488 5;
#X text 299 368 dha;
#X text 299 198 ya;
#X text 469 48 sa;
#X text 145 47 ha;
#X text 9 108 dang gede;
#X text 199 48 la;
#X text 29 208 ha;
#X text 459 368 low ka;
#X text 9 368 deung;
#X text 198 268 ba;
#X text 309 488 ga;
#X text 462 210 wa;
#X text 139 108 wa;
#X text 149 268 6;
#X text 189 108 na;
#X text 30 269 5;
#X text 466 481 cha;
#X text 149 368 e;
#X text 179 488 bindu judul;
#X text 299 268 wa;
#X text 459 268 na;
#X text 259 108 vowel short;
#X text 349 48 ay;
#X text 469 108 ja;
#X text 142 207 ka;
#X text 29 478 ma;
#X text 189 208 ma;
#X text 349 263 laa;
#X text 352 205 na;
#X text 349 108 ra;
#X text 308 48 ca;
