#N canvas 827 239 630 550 12;
#N canvas 0 50 450 250 (subpatch) 1;
#X obj 340 -181 note 0 840 Inter empty 0 255 172 171 0 25 25 25 0 0 /;
#X obj 393 -181 note 0 840 Inter empty 0 91 206 250 0 25 25 25 0 0 /;
#X obj 181 -181 note 0 840 Inter empty 0 91 206 250 0 25 25 25 0 0 /;
#X obj 286 -181 note 0 840 Inter empty 0 0 0 0 0 25 25 25 0 0 /;
#X obj 233 -181 note 0 840 Inter empty 0 255 172 171 0 25 25 25 0 0 /;
#X obj 79 39 knob 151 0 127 0 0 empty empty #191919 #e10038 0 0 13 0 0 360 0;
#X obj 239 39 knob 151 0 127 0 0 empty empty #191919 #00a8e1 0 0 0 0 1 336 0;
#X obj 399 39 knob 151 0 127 0 0 empty empty #191919 #e1c000 0 0 3 0 1 90 0;
#X obj 79 199 knob 151 0 127 0 0 empty empty #191919 #8ee100 0 0 18 0 1 270 0;
#X obj 239 199 knob 151 0 127 0 0 empty empty #191919 #e10048 0 0 6 0 1 270 0;
#X obj 399 199 knob 151 0 127 0 0 empty empty #191919 #8400e1 0 0 5 1 1 350 0;
#X obj 79 359 knob 151 0 127 0 0 empty empty #191919 #00e14c 0 0 104 0 1 270 11;
#X obj 239 359 knob 151 0 127 0 0 empty empty #191919 #e14700 0 0 12 0 1 182 0;
#X obj 399 359 knob 151 0 127 0 0 empty empty #191919 #00e1a9 0 0 3 1 1 270 0;
#X text 9 98 gender;
#X text 129 8 amount;
#X text 299 8 fuck;
#X text 459 8 magic;
#X text 9 258 gay;
#X text 9 418 doll;
#X coords 0 1 100 -1 631 551 1 0 0;
#X restore -1 -1 graph;
#N canvas 0 50 630 550 void 1;
#N canvas 0 50 450 250 (subpatch) 0;
#X array gender 100 float 0;
#X coords 0 1 99 -1 200 140 1;
#X restore 9 39 graph;
#N canvas 0 50 450 250 (subpatch) 0;
#X array gay 100 float 0;
#X coords 0 1 99 -1 200 140 1;
#X restore 9 199 graph;
#N canvas 0 50 450 250 (subpatch) 0;
#X array doll 100 float 0;
#X coords 0 1 99 -1 200 140 1;
#X restore 9 359 graph;
#N canvas 0 50 450 250 (subpatch) 0;
#X array genderfuck 100 float 0;
#X coords 0 1 99 -1 200 140 1;
#X restore 214 39 graph;
#N canvas 0 50 450 250 (subpatch) 0;
#X array gay-fuck 100 float 0;
#X coords 0 1 99 -1 200 140 1;
#X restore 214 199 graph;
#N canvas 0 50 450 250 (subpatch) 0;
#X array plsplsplsuwu 100 float 0;
#X coords 0 1 99 -1 200 140 1;
#X restore 214 359 graph;
#N canvas 0 50 450 250 (subpatch) 0;
#X array gender-magic 100 float 0;
#X coords 0 1 99 -1 200 140 1;
#X restore 419 39 graph;
#N canvas 0 50 450 250 (subpatch) 0;
#X array gay-magic 100 float 0;
#X coords 0 1 99 -1 200 140 1;
#X restore 419 199 graph;
#N canvas 0 50 450 250 (subpatch) 0;
#X array witch 100 float 0;
#X coords 0 1 99 -1 200 140 1;
#X restore 419 359 graph;
#N canvas 0 50 630 550 the-void 1;
#N canvas 0 50 630 550 the-deep-void 1;
#X text 218 161 blink;
#X restore 9 519 pd the-deep-void;
#X text 119 188 window shape \, overlap \, number of bins as a variable (that also controls the array lengths) \, that kinda stuuf here;
#X restore 9 519 pd the-void;
#X restore 9 519 pd void;
