#N canvas 827 239 630 550 12;
#N canvas 0 50 450 250 (subpatch) 1;
#X obj -19 -19 cnv 15 669 589 empty empty empty 20 12 0 14 #383838 #ffffff 0;
#X obj 340 -181 note 0 840 Inter empty 0 255 172 171 0 25 25 25 0 0 /;
#X obj 392 -181 note 0 840 Inter empty 0 91 206 250 0 25 25 25 0 0 /;
#X obj 181 -181 note 0 840 Inter empty 0 91 206 250 0 25 25 25 0 0 /;
#X obj 286 -181 note 0 840 Inter empty 0 0 0 0 0 25 25 25 0 0 /;
#X obj 233 -181 note 0 840 Inter empty 0 255 172 171 0 25 25 25 0 0 /;
#X obj 79 39 knob 151 0 127 0 0 empty empty #191919 #ff003f 0 0 13 0 1 350 0;
#X obj 239 39 knob 151 0 127 0 0 empty empty #191919 #00beff 0 0 7 0 1 330 0;
#X obj 399 39 knob 151 0 127 0 0 empty empty #191919 #ffb900 0 0 24 0 1 330 0;
#X obj 79 199 knob 151 0 127 0 0 empty empty #191919 #a1ff00 0 0 18 0 1 330 10;
#X obj 239 199 knob 151 0 127 0 0 empty empty #191919 #ff0052 0 0 6 0 1 350 0;
#X obj 399 199 knob 151 0 127 0 0 empty empty #191919 #7600ff 0 0 6 0 1 330 0;
#X obj 79 359 knob 151 0 127 0 0 empty empty #191919 #00ff56 0 0 104 0 1 330 11;
#X obj 239 359 knob 151 0 127 0 0 empty empty #191919 #ff4900 0 0 12 0 1 330 0;
#X obj 399 359 knob 151 0 127 0 0 empty empty #191919 #00ffc0 0 0 5 0 1 350 0;
#X text 129 8 gender;
#X text 9 258 fuck;
#X text 9 418 magic;
#X text 299 8 gay;
#X text 469 8 doll;
#X obj 659 39 cnv 15 21 21 empty empty 💧 -549 75 0 82 #575757 #191919 0;
#X text 9 98 amount;
#X obj 659 289 cnv 15 21 21 empty empty 🦋 -223 -179 0 61 #575757 #191919 0;
#X obj 659 349 cnv 15 21 21 empty empty 🧿 -238 83 0 97 #575757 #191919 0;
#X obj 659 319 cnv 15 21 21 empty empty 💖 -228 -41 0 77 #575757 #191919 0;
#X obj 659 69 cnv 15 21 21 empty empty 💧 -549 208 0 82 #575757 #191919 0;
#X obj 659 99 cnv 15 21 21 empty empty 💧 -549 335 0 82 #575757 #191919 0;
#X obj 659 129 cnv 15 21 21 empty empty 💧 -390 -14 0 82 #575757 #191919 0;
#X obj 659 159 cnv 15 21 21 empty empty 💧 -390 115 0 82 #575757 #191919 0;
#X obj 659 189 cnv 15 21 21 empty empty 💧 -390 247 0 82 #575757 #191919 0;
#X coords 0 1 100 -1 631 551 1 0 0;
#X restore -1 -1 graph;
#N canvas 0 50 630 550 void 1;
#N canvas 0 50 450 250 (subpatch) 0;
#X array \$0-gender 100 float 0;
#X coords 0 1 99 -1 200 140 1;
#X restore 9 39 graph;
#N canvas 0 50 450 250 (subpatch) 0;
#X array \$0-gay 100 float 0;
#X coords 0 1 99 -1 200 140 1;
#X restore 214 39 graph;
#N canvas 0 50 450 250 (subpatch) 0;
#X array \$0-doll 100 float 0;
#X coords 0 1 99 -1 200 140 1;
#X restore 419 39 graph;
#N canvas 0 50 450 250 (subpatch) 0;
#X array \$0-genderfuck 100 float 0;
#X coords 0 1 99 -1 200 140 1;
#X restore 9 199 graph;
#N canvas 0 50 450 250 (subpatch) 0;
#X array \$0-gaysex 100 float 0;
#X coords 0 1 99 -1 200 140 1;
#X restore 214 199 graph;
#N canvas 0 50 450 250 (subpatch) 0;
#X array \$0-plsplsplsuwu 100 float 0;
#X coords 0 1 99 -1 200 140 1;
#X restore 419 199 graph;
#N canvas 0 50 450 250 (subpatch) 0;
#X array \$0-insight 100 float 0;
#X coords 0 1 99 -1 200 140 1;
#X restore 9 359 graph;
#N canvas 0 50 450 250 (subpatch) 0;
#X array \$0-enchantment 100 float 0;
#X coords 0 1 99 -1 200 140 1;
#X restore 214 359 graph;
#N canvas 0 50 450 250 (subpatch) 0;
#X array \$0-witch 100 float 0;
#X coords 0 1 99 -1 200 140 1;
#X restore 419 359 graph;
#N canvas 0 50 630 550 voidvoid 1;
#X text 79 248 window shape \, overlap \, number of bins as a variable (that also controls the array lengths) \, that kinda stuuf here;
#N canvas 0 50 630 550 voidvoidvoid 1;
#N canvas 0 50 630 550 light 1;
#X text 289 248 blink;
#X restore 9 519 pd light;
#X obj 337 195 nbx 4 18 0 400 0 1 empty empty empty 0 -8 0 10 #191919 #ffffff #ffffff 212 256;
#X obj 389 195 nbx 4 18 0 1 0 1 empty empty empty 0 -8 0 10 #191919 #ffffff #ffffff 0 256;
#N canvas 489 65 578 521 gender-delay 1;
#X obj 82 40 inlet~;
#X obj 82 282 rfft~;
#X obj 82 366 rifft~;
#X obj 82 459 outlet~;
#X obj 82 396 /~ 768;
#X obj 365 278 *~;
#X obj 82 238 hann~;
#X obj 82 431 hann~;
#X obj 249 160 blocksize~ -ms;
#X obj 113 189 expr~ rint($v1*$v2) * $f3;
#X obj 379 89 block~ 1024 4;
#X obj 82 327 comb.rev~ 22230 0 1 0;
#X obj 241 326 comb.rev~ 22230 0 1 0;
#X obj 181 119 inlet;
#X obj 376 249 inlet;
#X obj 113 79 tabreceive~ \$0-gender;
#X obj 365 199 tabreceive~ \$0-genderfuck;
#X connect 0 0 6 0 empty;
#X connect 1 0 11 0 empty;
#X connect 1 1 12 0 empty;
#X connect 2 0 4 0 empty;
#X connect 4 0 7 0 empty;
#X connect 5 0 11 4 empty;
#X connect 5 0 12 4 empty;
#X connect 6 0 1 0 empty;
#X connect 7 0 3 0 empty;
#X connect 8 0 9 2 empty;
#X connect 9 0 11 1 empty;
#X connect 9 0 12 1 empty;
#X connect 11 0 2 0 empty;
#X connect 12 0 2 1 empty;
#X connect 13 0 9 1 empty;
#X connect 14 0 5 1 empty;
#X connect 15 0 9 0 empty;
#X connect 16 0 5 0 empty;
#X coords 0 0 1 1 230 100 0;
#X restore 294 235 pd gender-delay;
#X obj 229 459 dac~;
#X obj 229 29 adc~;
#N canvas 0 50 450 300 array-resize 1;
#X obj 89 29 inlet;
#X obj 29 149 s \$0-gender;
#X obj 159 149 s \$0-gay;
#X obj 299 149 s \$0-doll;
#X obj 29 189 s \$0-genderfuck;
#X obj 159 189 s \$0-gaysex;
#X obj 299 189 s \$0-plsplsplsuwu;
#X obj 29 229 s \$0-insight;
#X obj 159 229 s \$0-enchantment;
#X obj 299 229 s \$0-witch;
#X msg 89 79 resize \$1;
#X connect 0 0 10 0 empty;
#X connect 10 0 3 0 empty;
#X connect 10 0 6 0 empty;
#X connect 10 0 5 0 empty;
#X connect 10 0 2 0 empty;
#X connect 10 0 8 0 empty;
#X connect 10 0 9 0 empty;
#X connect 10 0 4 0 empty;
#X connect 10 0 1 0 empty;
#X connect 10 0 7 0 empty;
#X restore 39 179 pd array-resize;
#X obj 39 99 nbx 4 18 -1e+37 1e+37 0 0 empty empty empty 0 -8 0 10 #191919 #ffffff #ffffff 0 256;
#X obj 39 139 expr pow(2 \, $f1);
#X connect 1 0 3 1 empty;
#X connect 2 0 3 2 empty;
#X connect 7 0 8 0 empty;
#X connect 8 0 6 0 empty;
#X restore 9 519 pd voidvoidvoid;
#X restore 9 519 pd voidvoid;
#X restore 9 519 pd void;
