#N canvas 827 239 630 550 12;
#N canvas 0 50 450 250 (subpatch) 1;
#X obj -19 -19 cnv 15 669 589 empty empty empty 20 12 0 14 #383838 #ffffff 0;
#X obj 340 -181 note 0 840 Inter empty 0 255 172 171 0 25 25 25 0 0 /;
#X obj 392 -181 note 0 840 Inter empty 0 91 206 250 0 25 25 25 0 0 /;
#X obj 181 -181 note 0 840 Inter empty 0 91 206 250 0 25 25 25 0 0 /;
#X obj 286 -181 note 0 840 Inter empty 0 0 0 0 0 25 25 25 0 0 /;
#X obj 233 -181 note 0 840 Inter empty 0 255 172 171 0 25 25 25 0 0 /;
#X obj 79 39 knob 151 0 127 0 0 empty empty #191919 #ff003f 0 0 13 0 0 360 0;
#X obj 239 39 knob 151 0 127 0 0 empty empty #191919 #00beff 0 0 0 0 1 336 0;
#X obj 399 39 knob 151 0 127 0 0 empty empty #191919 #ffb900 0 0 14 0 1 287 0;
#X obj 79 199 knob 151 0 127 0 0 empty empty #191919 #a1ff00 0 0 18 0 1 270 0;
#X obj 239 199 knob 151 0 127 0 0 empty empty #191919 #ff0052 0 0 6 0 1 270 0;
#X obj 399 199 knob 151 0 127 0 0 empty empty #191919 #7600ff 0 0 6 0 1 315 0;
#X obj 79 359 knob 151 0 127 0 0 empty empty #191919 #00ff56 0 0 104 0 1 270 11;
#X obj 239 359 knob 151 0 127 0 0 empty empty #191919 #ff4900 0 0 12 0 1 182 0;
#X obj 399 359 knob 151 0 127 0 0 empty empty #191919 #00ffc0 0 0 5 1 1 270 0;
#X text 129 8 gender;
#X text 9 258 fuck;
#X text 9 418 magic;
#X text 299 8 gay;
#X text 469 8 doll;
#X obj 659 139 cnv 15 41 41 empty empty 💧 -115 290 0 82 #575757 #ff0000 0;
#X text 9 98 amount;
#X coords 0 1 100 -1 631 551 1 0 0;
#X restore -1 -1 graph;
#N canvas 0 50 630 550 void 1;
#N canvas 0 50 450 250 (subpatch) 0;
#X array gender 100 float 0;
#X coords 0 1 99 -1 200 140 1;
#X restore 9 39 graph;
#N canvas 0 50 450 250 (subpatch) 0;
#X array gay 100 float 0;
#X coords 0 1 99 -1 200 140 1;
#X restore 214 39 graph;
#N canvas 0 50 450 250 (subpatch) 0;
#X array doll 100 float 0;
#X coords 0 1 99 -1 200 140 1;
#X restore 419 39 graph;
#N canvas 0 50 450 250 (subpatch) 0;
#X array genderfuck 100 float 0;
#X coords 0 1 99 -1 200 140 1;
#X restore 9 199 graph;
#N canvas 0 50 450 250 (subpatch) 0;
#X array gaysex 100 float 0;
#X coords 0 1 99 -1 200 140 1;
#X restore 214 199 graph;
#N canvas 0 50 450 250 (subpatch) 0;
#X array plsplsplsuwu 100 float 0;
#X coords 0 1 99 -1 200 140 1;
#X restore 419 199 graph;
#N canvas 0 50 450 250 (subpatch) 0;
#X array insight 100 float 0;
#X coords 0 1 99 -1 200 140 1;
#X restore 9 359 graph;
#N canvas 0 50 450 250 (subpatch) 0;
#X array enchantment 100 float 0;
#X coords 0 1 99 -1 200 140 1;
#X restore 214 359 graph;
#N canvas 0 50 450 250 (subpatch) 0;
#X array witch 100 float 0;
#X coords 0 1 99 -1 200 140 1;
#X restore 419 359 graph;
#N canvas 0 50 630 550 voidvoid 1;
#X text 119 188 window shape \, overlap \, number of bins as a variable (that also controls the array lengths) \, that kinda stuuf here;
#N canvas 0 50 630 550 voidvoidvoid 1;
#N canvas 0 50 630 550 light 1;
#X text 289 248 blink;
#X restore 9 519 pd light;
#X restore 9 519 pd voidvoidvoid;
#X restore 9 519 pd voidvoid;
#X restore 9 519 pd void;
